<?xml version="1.0" encoding="UTF-8" standalone="no"?>
<!-- Created with Inkscape (http://www.inkscape.org/) -->

<svg
   width="157.06198mm"
   height="140.09492mm"
   viewBox="0 0 157.06198 140.09492"
   version="1.1"
   id="svg1"
   xmlns="http://www.w3.org/2000/svg"
   xmlns:svg="http://www.w3.org/2000/svg">
  <defs
     id="defs1" />
  <g
     id="layer1"
     transform="translate(-91.382081,-78.840783)">
    <g
       id="g1">
      <ellipse
         style="fill:#ffffff;fill-opacity:1;stroke:#f6f0e3;stroke-width:0.2032"
         id="path1"
         cx="169.91307"
         cy="148.88824"
         rx="78.42939"
         ry="69.945862" />
      <g
         id="layer1-8"
         transform="matrix(2.8098037,0,0,2.8926143,-185.62755,-71.31182)">
        <path
           style="fill:#000000;stroke-width:0.144275"
           d="m 123.45117,93.539164 c -0.30538,-0.28105 -0.5338,-0.52629 -0.50748,-0.54495 0.0277,-0.0186 0.81659,-0.37433 1.75622,-0.79037 l 1.7084,-0.75643 1.73519,0.75222 c 0.95435,0.41373 1.73519,0.80061 1.73519,0.85973 0,0.0591 -0.23067,0.30799 -0.51253,0.55304 l -0.5125,0.44554 -2.4236,-0.004 -2.4236,-0.004 z m 7.44248,-1.03351 c -0.59811,-0.2784 -1.73991,-0.7806 -2.53738,-1.11595 l -1.44991,-0.60975 v -0.5367 c 0,-0.52988 0.0138,-0.54233 1.05346,-0.98094 0.9327,-0.39329 1.17151,-0.58084 2.0826,-1.6354 0.96957,-1.12232 1.04413,-1.25922 1.28993,-2.36871 l 0.26077,-1.17755 -0.33167,-0.3589 c -0.2867,-0.31025 -0.39526,-0.79661 -0.80049,-3.58895 -0.25765,-1.77653 -0.50437,-3.28849 -0.54791,-3.35991 -0.0435,-0.0714 -0.007,-0.0859 0.0806,-0.0323 0.0878,0.0537 1.43167,1.98559 2.98642,4.29304 l 2.82678,4.19535 -0.0823,0.94937 c -0.0453,0.52216 -0.0243,0.98542 0.0484,1.02948 0.0719,0.044 1.27098,0.28004 2.66437,0.52442 1.39344,0.24436 2.95758,0.5338 3.47594,0.64316 0.51834,0.10936 1.25239,0.2415 1.63116,0.2936 0.6072,0.0835 0.68874,0.13619 0.68874,0.44484 0,0.43558 -0.15285,0.44092 -2.00713,0.07 -0.77012,-0.15403 -2.18317,-0.41602 -3.14011,-0.58222 -0.95698,-0.16618 -2.1314,-0.38653 -2.60991,-0.48964 -0.47847,-0.10311 -0.91886,-0.1603 -0.97869,-0.12709 -0.0599,0.0333 -0.10722,0.23419 -0.10547,0.44668 0.002,0.35822 0.24036,0.50637 3.26233,2.03701 1.79254,0.90789 3.25916,1.68691 3.25916,1.73115 0,0.0443 -0.0906,0.20341 -0.20198,0.35368 -0.15251,0.20674 -0.24969,0.23494 -0.39871,0.11584 -0.31093,-0.24838 -5.872,-3.0618 -6.05226,-3.0618 -0.0941,0 -0.16185,0.25797 -0.16185,0.61518 0,0.61314 -0.005,0.61852 -1.40133,1.61503 -0.77074,0.54991 -1.47214,1.03903 -1.55866,1.08692 -0.0865,0.0479 -0.64671,-0.1407 -1.2448,-0.41913 z m -11.52695,-0.61279 c -1.4901,-1.04231 -1.63974,-1.21302 -1.65724,-1.89041 -0.007,-0.21713 -0.0807,-0.39479 -0.16635,-0.39479 -0.14561,0 -3.29964,1.591 -5.29356,2.67033 -0.67121,0.36334 -0.92282,0.43766 -1.05119,0.31054 -0.42082,-0.41663 -0.44622,-0.39967 3.96348,-2.6453 2.22249,-1.1318 2.31791,-1.19825 2.27264,-1.58287 -0.0277,-0.22082 -0.0615,-0.41565 -0.0792,-0.43298 -0.0173,-0.0172 -0.64873,0.0881 -1.40272,0.2343 -6.84072,1.32639 -7.11148,1.3695 -7.24916,1.15396 -0.0739,-0.11572 -0.1356,-0.27578 -0.13661,-0.35568 -10e-4,-0.12756 2.99016,-0.74269 7.04488,-1.44831 0.72597,-0.12634 1.40059,-0.27908 1.4992,-0.33942 0.1366,-0.0836 0.1456,-0.32798 0.0377,-1.02641 l -0.14179,-0.9167 2.12239,-3.13954 c 2.45649,-3.63376 2.37136,-3.50959 3.11316,-4.54082 l 0.56792,-0.78957 -0.0903,0.86135 c -0.0498,0.47374 -0.26492,1.95957 -0.4785,3.30184 -0.31611,1.98802 -0.44839,2.50703 -0.71292,2.79938 l -0.32475,0.3589 0.25349,1.1771 c 0.23103,1.07356 0.32441,1.25666 1.05826,2.08159 1.36226,1.5311 1.46315,1.6117 2.47706,1.97869 l 0.98461,0.35641 -0.0428,0.54469 -0.0428,0.54471 -1.95742,0.85696 c -1.07657,0.47134 -2.13055,0.95411 -2.34225,1.07282 -0.21166,0.11871 -0.47266,0.21531 -0.57998,0.21462 -0.10722,-7.1e-4 -0.8476,-0.45761 -1.64504,-1.01542 z m 6.02231,-3.30234 c -0.71929,-0.25267 -1.74502,-1.02151 -1.74502,-1.30795 0,-0.0634 0.31574,-0.11541 0.7017,-0.11541 0.61122,0 0.72337,-0.0472 0.86994,-0.36565 0.31368,-0.68169 0.11552,-1.21762 -0.52498,-1.41887 -0.2587,-0.0812 -0.42156,-0.006 -0.75529,0.34752 -0.3372,0.35726 -0.52295,0.44166 -0.89358,0.40571 -0.42896,-0.0416 -0.4836,-0.10528 -0.65507,-0.76317 -0.10301,-0.39478 -0.18849,-0.79651 -0.18987,-0.89271 -10e-4,-0.0962 0.35327,-0.43536 0.78845,-0.75368 l 0.79128,-0.57876 h 2.56714 2.56711 l 0.69027,0.43856 c 1.02357,0.65033 1.05362,0.70796 0.8571,1.64504 -0.0931,0.44321 -0.2452,0.82863 -0.33788,0.85649 -0.80513,0.24124 -0.97231,0.22179 -1.10688,-0.12867 -0.28255,-0.73583 -1.17696,-0.73492 -1.45976,0.002 -0.11482,0.29868 -0.0883,0.47639 0.12346,0.82931 0.24105,0.40228 0.33236,0.44516 0.87305,0.41068 0.33201,-0.0211 0.60169,0.0111 0.59917,0.0718 -0.0138,0.32151 -0.83538,0.96581 -1.62132,1.27076 -1.05215,0.40826 -1.10845,0.40951 -2.13882,0.0475 z m -9.51906,-4.96466 c -0.30952,-0.38137 -1.0687,-1.28432 -1.68672,-2.00656 l -1.12372,-1.31315 v -5.4508 -5.4508 l 1.81241,-2.370592 c 0.99681,-1.30382 1.81242,-2.431857 1.81242,-2.506745 0,-0.07488 -0.42196,-0.213154 -0.93769,-0.307243 -0.51575,-0.09409 -1.03218,-0.206953 -1.14769,-0.250845 -0.13868,-0.05267 -0.58393,0.364986 -1.30971,1.228384 -0.60485,0.719504 -1.10193,1.354186 -1.1047,1.410406 -0.002,0.05622 -0.13001,1.361943 -0.28323,2.901605 -0.15287,1.53966 -0.41219,4.16004 -0.57605,5.82306 l -0.29776,3.02368 -0.70497,1.42662 c -0.38776,0.78465 -0.85,1.76108 -1.02721,2.16986 -0.31611,0.72884 -0.34796,0.75412 -1.65013,1.30578 -0.73032,0.30939 -1.36889,0.54123 -1.41904,0.51518 -0.0502,-0.0262 -0.13868,-0.87205 -0.19678,-1.88001 -0.18744,-3.25425 0.0277,-2.8124 -3.43342,-7.03557 -0.44271,-0.54017 -0.60837,-0.95127 -0.99136,-2.46023 -0.66695,-2.6279 -0.67162,-2.79066 -0.11131,-3.89328 0.44864,-0.882712 0.55258,-0.981255 1.92417,-1.823902 1.92568,-1.183067 2.20149,-1.348251 4.60732,-2.759439 4.05196,-2.376772 5.18483,-3.025286 5.29025,-3.028435 0.0588,-0.0016 0.27011,-0.129522 0.46945,-0.283917 0.19922,-0.154392 0.45133,-0.28216 0.55992,-0.283917 0.10862,-0.0016 1.13671,0.461669 2.2847,1.029836 l 2.08719,1.033031 0.58137,-0.562037 0.58133,-0.56204 6.60532,-0.0044 6.60528,-0.0044 0.54889,0.582579 0.54885,0.582575 2.08672,-1.042744 c 1.14768,-0.573505 2.16394,-1.045688 2.25832,-1.04929 0.0944,-0.0035 0.48586,0.181587 0.86996,0.411498 0.38409,0.229921 2.13378,1.259665 3.88821,2.288324 1.75439,1.028654 3.79504,2.245613 4.53472,2.704349 3.13884,1.946653 3.1267,1.937192 3.54863,2.761952 0.55896,1.092627 0.53799,1.445647 -0.28151,4.746297 -0.24176,0.97411 -0.11552,0.79262 -3.18411,4.57286 l -0.89206,1.09896 -0.18399,2.48236 c -0.12279,1.6586 -0.23587,2.4611 -0.34032,2.4183 -0.0861,-0.0351 -0.71116,-0.2985 -1.389,-0.58505 l -1.23242,-0.52099 -1.0481,-2.14657 c -1.18881,-2.43486 -1.05847,-1.74339 -1.63696,-8.6824 -0.48272,-5.789989 -0.34721,-5.154037 -1.36082,-6.385555 -1.43169,-1.739433 -1.16952,-1.589317 -2.3338,-1.336421 -0.55823,0.121256 -1.06527,0.265572 -1.12676,0.320679 -0.0615,0.05511 0.0505,0.321755 0.249,0.592478 0.19852,0.270733 0.47554,0.65377 0.61591,0.85116 0.14042,0.197387 0.79499,1.082487 1.45476,1.966872 l 1.19952,1.607977 v 5.33041 5.33042 l -1.19621,1.40831 c -0.65789,0.77458 -1.42455,1.70339 -1.70365,2.06403 -0.2791,0.36065 -0.57012,0.63767 -0.64673,0.61562 -0.11965,-0.0344 -2.37452,-3.27602 -5.25649,-7.55678 -0.45186,-0.67113 -0.94323,-1.35741 -1.092,-1.52506 -0.29846,-0.33627 -0.75405,-2.70131 -0.57687,-2.99394 0.28843,-0.47625 2.56518,-3.233135 2.67011,-3.233135 0.10792,0 2.65864,1.012415 4.72415,1.875105 0.42054,0.17564 0.80252,0.28184 0.8488,0.23601 0.0464,-0.0459 0.0241,-0.26091 -0.0488,-0.47795 -0.11692,-0.34762 -0.45872,-0.52813 -2.87074,-1.51634 -1.50583,-0.616948 -2.81513,-1.121724 -2.90947,-1.121724 -0.0943,0 -0.45489,0.371457 -0.80117,0.825458 -0.34627,0.454006 -0.92924,1.180766 -1.2955,1.615036 -1.12202,1.33037 -1.33053,1.68649 -1.24075,2.11923 0.045,0.21616 0.21201,1.36205 0.37145,2.5464 0.15941,1.18436 0.45242,3.28389 0.65108,4.66565 0.45885,3.19132 0.45723,3.09279 0.046,2.80752 -0.5001,-0.3468 -5.76199,-0.3277 -6.3024,0.0229 l -0.37981,0.24636 0.0844,-0.64115 c 0.0933,-0.70928 0.85467,-5.75514 1.19062,-7.89085 0.33616,-2.13815 0.32717,-2.19235 -0.57442,-3.35462 -1.87839,-2.421879 -2.13855,-2.75335 -2.258,-2.877156 -0.0744,-0.07729 -1.28595,0.328811 -2.96818,0.994962 -2.69965,1.069044 -2.85273,1.150314 -3.05076,1.619554 -0.11482,0.27174 -0.20855,0.51932 -0.20855,0.55022 0,0.0308 0.24487,-0.0476 0.54371,-0.17442 2.36715,-1.00387 5.17937,-2.074954 5.31385,-2.023866 0.0899,0.03404 0.72834,0.799416 1.41885,1.700606 l 1.25547,1.63853 -0.20958,1.21432 c -0.12032,0.69793 -0.32786,1.36693 -0.48736,1.57321 -0.31887,0.41194 -3.45659,4.91013 -5.05727,7.24969 -1.49475,2.18473 -1.33491,2.08326 -1.99702,1.26788 z m 4.98536,-9.30305 c 0.87419,-0.40297 1.04916,-0.68377 0.67865,-1.08914 -0.28463,-0.31126 -1.4997,-1.1401 -1.67153,-1.1401 -0.0588,0 -0.10278,0.28356 -0.0975,0.63011 0.0105,0.75719 -0.43043,1.59504 -0.8414,1.59504 -0.44893,0 -0.81608,-0.86177 -0.74919,-1.75859 l 0.0561,-0.75368 h -0.62426 c -0.60159,0 -1.93695,0.51206 -1.93695,0.74274 0,0.0612 0.37517,0.49052 0.83368,0.95401 0.91355,0.92339 1.42384,1.13514 2.79113,1.15818 0.5641,0.01 1.02093,-0.0896 1.56109,-0.33856 z m 14.10856,0.13383 c 0.71348,-0.24554 1.14125,-0.58587 1.83266,-1.458 l 0.46565,-0.58736 -0.71003,-0.30241 c -0.39049,-0.16632 -0.96119,-0.3024 -1.26816,-0.3024 h -0.5582 l 0.005,0.82546 c 0.005,0.64219 -0.0705,0.9306 -0.33617,1.29905 -0.38726,0.53763 -0.5328,0.53347 -0.95494,-0.0272 -0.22376,-0.29703 -0.29396,-0.59274 -0.28013,-1.17479 l 0.0173,-0.77785 -0.58071,0.3225 c -0.31921,0.17736 -0.79934,0.54518 -1.06664,0.81734 -0.46565,0.47415 -0.4755,0.5065 -0.23553,0.77395 0.68004,0.75811 2.38546,1.03328 3.66813,0.59184 z"
           id="path1-5" />
      </g>
    </g>
  </g>
</svg>
