<?xml version="1.0" encoding="UTF-8" standalone="no"?>
<!-- Created with Inkscape (http://www.inkscape.org/) -->

<svg
   version="1.1"
   id="svg1"
   width="180"
   height="152.66667"
   viewBox="0 0 180 152.66667"
   xmlns="http://www.w3.org/2000/svg"
   xmlns:svg="http://www.w3.org/2000/svg">
  <defs
     id="defs1" />
  <g
     id="g1">
    <path
       style="fill:#2b2b2b;fill-opacity:1"
       d="m 84.104869,137.24504 c -6.998385,-4.08114 -3.04461,-13.07872 1.72704,-16.46857 0.50511,-12.34078 0.56766,-24.752635 -0.0984,-37.087492 -4.75903,-0.06999 -10.884984,7.892903 -15.883485,11.000177 -6.705697,5.805265 -13.897838,11.134485 -19.953971,17.640995 2.212704,8.21272 -4.583385,17.08773 -13.76437,13.31098 -7.772896,-3.15565 -5.490037,-15.94511 2.690766,-16.71479 8.121991,2.40228 12.044932,-5.59963 17.652274,-9.854981 7.4322,-7.128438 15.463613,-13.564311 23.378836,-20.127952 C 77.624451,75.673045 66.881864,78.195924 61.639198,77.298246 51.354061,77.108323 41.072201,76.750865 30.784726,76.635006 27.890621,82.723468 19.613215,85.794345 14.024851,81.24822 7.6462869,76.329656 11.453005,65.042845 19.327139,64.44499 26.012145,62.37133 27.815377,71.248861 32.140721,72.163068 48.463253,71.209272 64.821069,71.467351 81.163229,71.412544 68.907723,59.541651 56.33049,48.010338 43.829898,36.399567 38.461303,38.49339 31.093304,36.003932 29.88398,29.898698 26.871832,19.881437 42.00857,13.677049 47.510393,22.103419 c 4.282634,5.590691 -3.204076,13.237972 5.500916,16.563675 10.966704,8.890089 21.166265,18.765514 32.49896,27.170739 2.33754,-3.825313 0.57638,-12.186858 1.23108,-17.717169 0.0591,-7.69158 0.10568,-15.383254 0.15942,-23.074874 -5.43661,-1.495554 -8.790834,-7.44299 -6.27495,-12.779033 3.05302,-8.1565529 17.27051,-6.973234 18.03741,2.094337 2.573421,7.902026 -9.55417,8.66572 -6.32493,16.74585 0.17112,11.418869 0.3203,22.847618 0.89955,34.252556 12.633471,-9.785996 23.946421,-21.194293 36.609621,-30.972845 -0.58802,-5.345039 -2.12079,-14.097707 5.94422,-15.577152 6.84848,-2.795901 14.6721,3.614712 12.72469,10.901777 -0.5975,6.510998 -7.93964,8.573056 -13.41487,7.249367 -2.77925,-1.122072 -3.9067,2.263862 -5.76908,3.644079 -9.62072,10.039666 -20.35686,18.996028 -29.622181,29.364387 4.250031,2.713018 14.118211,0.638742 20.372331,1.503803 9.55321,0.17966 19.10237,0.515212 28.65248,0.809621 1.52987,-6.520862 9.83431,-10.340327 15.50266,-6.28029 7.7892,4.221554 4.01014,16.608122 -4.43243,17.12047 -6.24855,2.026701 -8.55443,-5.702215 -12.54089,-7.121883 -16.1606,1.229236 -32.40497,0.767952 -48.558131,2.016628 0.50785,4.149173 9.835981,9.047316 13.673921,13.517157 6.61141,5.84656 13.15706,11.767371 19.61215,17.786161 4.69353,-0.59186 10.4485,-1.05998 13.13427,3.77144 4.61281,6.86255 -3.40402,15.54127 -10.80853,12.67098 -6.63158,-1.19917 -6.48074,-8.47965 -5.7083,-13.70723 -11.88481,-9.75338 -23.84925,-19.415234 -35.446551,-29.511846 -0.54948,12.622393 -1.22319,25.269646 -0.77681,37.899266 4.18435,4.26236 8.311831,12.88701 1.09614,16.93317 -2.80687,1.7936 -6.63768,1.78463 -9.37769,-0.13152 z m 44.058371,-12.14666 c 0.85166,-1.19581 0.85161,1.19583 0,0 z"
       id="path1" />
  </g>
</svg>
