<?xml version="1.0" encoding="UTF-8" standalone="no"?>
<!-- Created with Inkscape (http://www.inkscape.org/) -->

<svg
   version="1.1"
   id="svg1"
   width="180"
   height="152.66667"
   viewBox="0 0 180 152.66667"
   xmlns="http://www.w3.org/2000/svg"
   xmlns:svg="http://www.w3.org/2000/svg">
  <defs
     id="defs1" />
  <g
     id="g1">
    <path
       id="path1"
       style="fill:#c9a227;fill-opacity:1"
       d="M 88.982422,6.8027344 C 85.434098,6.9177005 81.960696,8.6990862 80.625,12.267578 c -2.515884,5.336043 0.838781,11.28179 6.275391,12.777344 -0.05374,7.69162 -0.0991,15.384592 -0.158203,23.076172 -0.6547,5.530311 1.105118,13.891484 -1.232422,17.716797 C 74.177071,57.432666 63.978423,47.558058 53.011719,38.667969 44.306727,35.342266 51.7924,27.694207 47.509766,22.103516 c -5.501823,-8.42637 -20.637148,-2.22234 -17.625,7.794922 1.209324,6.105233 8.576717,8.595776 13.945312,6.501953 12.500592,11.610771 25.078479,23.140825 37.333984,35.011718 -16.34216,0.05481 -32.700905,-0.203796 -49.023437,0.75 -4.325344,-0.914207 -6.129447,-9.790457 -12.814453,-7.716797 -7.874134,0.597855 -11.6793455,11.884171 -5.300781,16.802735 5.588364,4.546125 13.86566,1.475181 16.759765,-4.613281 10.287475,0.115859 20.568379,0.474139 30.853516,0.664062 5.242666,0.897678 15.985736,-1.625831 18.214844,1.644531 -7.915223,6.563641 -15.946707,13.000469 -23.378907,20.128907 -5.607342,4.255354 -9.530352,12.255794 -17.652343,9.853514 -8.180803,0.76968 -10.464303,13.5592 -2.691407,16.71484 9.180985,3.77675 15.978329,-5.09782 13.765625,-13.31054 6.056133,-6.50651 13.247428,-11.83536 19.953125,-17.640627 4.998501,-3.107274 11.125736,-11.06999 15.884766,-11 0.66606,12.334857 0.602766,24.747107 0.09766,37.087887 -4.77165,3.38985 -8.724947,12.38566 -1.726562,16.4668 2.74001,1.91615 6.570083,1.92641 9.376953,0.13281 7.215688,-4.04616 3.088647,-12.67123 -1.095703,-16.93359 -0.44638,-12.62962 0.227863,-25.276045 0.777343,-37.898438 11.597298,10.096612 23.560498,19.758338 35.445318,29.511718 -0.77244,5.22758 -0.9226,12.50786 5.70898,13.70703 7.40451,2.87029 15.4214,-5.80932 10.80859,-12.67187 -2.68577,-4.83142 -8.44123,-4.36335 -13.13476,-3.77149 C 125.5371,103.30152 118.99227,97.381716 112.38086,91.535156 108.54292,87.065315 99.214881,82.166751 98.707031,78.017578 114.86019,76.768902 131.10307,77.229236 147.26367,76 c 3.98646,1.419668 6.29247,9.149748 12.54102,7.123047 8.44257,-0.512348 12.22279,-12.89954 4.43359,-17.121094 -5.66835,-4.060037 -13.97404,-0.239612 -15.5039,6.28125 -9.55012,-0.294409 -19.09914,-0.630887 -28.65235,-0.810547 -6.25412,-0.865061 -16.12106,1.209112 -20.371092,-1.503906 9.265322,-10.368359 20.000372,-19.323615 29.621092,-29.363281 1.86238,-1.380217 2.99028,-4.766604 5.76953,-3.644531 5.47523,1.323688 12.81657,-0.739002 13.41406,-7.25 1.94741,-7.287065 -5.87612,-13.698245 -12.7246,-10.902344 -8.06501,1.479445 -6.53138,10.233086 -5.94336,15.578125 -12.6632,9.778552 -23.97591,21.18666 -36.609379,30.972656 -0.57925,-11.404938 -0.72927,-22.833084 -0.90039,-34.251953 -3.22924,-8.08013 8.899589,-8.844068 6.326171,-16.746094 -0.431381,-5.1005086 -5.119509,-7.7064073 -9.68164,-7.5585936 z" />
  </g>
</svg>
