<?xml version="1.0" encoding="UTF-8" standalone="no"?>
<svg
   version="1.1"
   width="103.722mm"
   height="68.4424mm"
   viewBox="0 0 588 388"
   id="svg1"
   xmlns="http://www.w3.org/2000/svg"
   xmlns:svg="http://www.w3.org/2000/svg"
   xmlns:rdf="http://www.w3.org/1999/02/22-rdf-syntax-ns#"
   xmlns:cc="http://creativecommons.org/ns#"
   xmlns:dc="http://purl.org/dc/elements/1.1/">
  <title
     id="title1">boom-teal</title>
  <defs
     id="defs1" />
  <path
     style="fill:#2d8c9f;stroke-width:1.03046;fill-opacity:1"
     d="M 284.6316,349.68522 C 197.40564,346.78909 109.01926,343.32637 24.189371,321.45305 3.6210933,314.32437 -21.144139,307.78163 -32.854872,288.15101 -44.242069,261.74568 -22.190925,236.88497 -5.4911577,218.39807 48.837315,161.76878 117.27495,120.5439 186.22323,83.454908 237.77866,56.88562 290.78299,33.256212 345.5896,13.999368 384.92589,0.07788919 425.17762,-12.85659 466.29702,-21.053477 c 24.60858,2.816563 -16.5796,25.5992082 -24.04001,33.078453 -55.44062,43.36398 -114.7266,86.147822 -152.06332,146.695734 -16.28436,26.09881 -21.88509,63.33621 1.72051,87.09307 32.02753,30.49836 76.91806,41.86303 118.00263,55.67008 64.11755,19.6048 146.5352,25.41643 34.61767,43.80056 -53.15034,4.43033 -106.59802,4.68609 -159.9029,4.4008 z"
     id="path1" />
  <metadata
     id="metadata1">
    <rdf:RDF>
      <cc:Work
         rdf:about="">
        <dc:title>boom-teal</dc:title>
      </cc:Work>
    </rdf:RDF>
  </metadata>
</svg>
