<?xml version="1.0" encoding="UTF-8" standalone="no"?>
<svg
   version="1.1"
   width="98.4301mm"
   height="68.4424mm"
   viewBox="0 0 558 388"
   id="svg1"
   xmlns="http://www.w3.org/2000/svg"
   xmlns:svg="http://www.w3.org/2000/svg"
   xmlns:rdf="http://www.w3.org/1999/02/22-rdf-syntax-ns#"
   xmlns:cc="http://creativecommons.org/ns#"
   xmlns:dc="http://purl.org/dc/elements/1.1/">
  <title
     id="title1">boom-orange</title>
  <defs
     id="defs1" />
  <path
     style="fill:#d46f42;fill-opacity:1;stroke-width:1.03474"
     d="M 291.15682,345.63759 C 218.66826,344.46929 145.30219,342.54945 74.460385,325.64929 55.296276,319.51353 29.454824,314.14075 22.390378,292.35184 17.20257,267.90113 36.484406,247.32866 51.594485,230.68846 111.84946,169.17325 187.13604,125.45926 263.19966,86.83419 326.97574,55.856203 393.26264,28.968682 462.4398,13.084193 c 22.12818,-0.706366 -9.97604,20.592275 -15.85468,25.865447 -50.76357,39.756462 -104.66796,79.07169 -139.80636,134.43119 -15.2659,23.113 -21.92235,58.3553 0.33829,79.47211 34.38666,30.77965 81.46847,39.00413 124.18498,52.05416 22.08619,6.23937 44.5545,11.36331 66.15822,19.16905 1.44881,14.18194 -30.25556,9.50685 -42.18249,13.56341 -54.43985,6.36272 -109.38464,6.93399 -164.12094,7.99803 z"
     id="path4" />
  <path
     style="fill:#000000"
     id="path3" />
  <path
     style="fill:#000000"
     id="path2" />
  <path
     style="fill:#000000"
     id="path1" />
  <metadata
     id="metadata4">
    <rdf:RDF>
      <cc:Work
         rdf:about="">
        <dc:title>boom-orange</dc:title>
      </cc:Work>
    </rdf:RDF>
  </metadata>
</svg>
