<?xml version="1.0" encoding="UTF-8" standalone="no"?>
<svg
   version="1.1"
   width="98.4301mm"
   height="73.2052mm"
   viewBox="0 0 558 415"
   id="svg1"
   xmlns="http://www.w3.org/2000/svg"
   xmlns:svg="http://www.w3.org/2000/svg"
   xmlns:rdf="http://www.w3.org/1999/02/22-rdf-syntax-ns#"
   xmlns:cc="http://creativecommons.org/ns#"
   xmlns:dc="http://purl.org/dc/elements/1.1/">
  <title
     id="title1">boom-yellow</title>
  <defs
     id="defs1" />
  <path
     style="fill:#c9a227;fill-opacity:1;stroke-width:0.988767"
     d="M 277.37728,378.60808 C 206.95393,375.74134 135.78113,371.34839 67.512404,354.05543 46.413271,346.98183 19.353954,339.23858 11.887307,317.15784 6.7712232,289.42907 29.809377,266.68944 47.984322,247.50957 129.74639,170.32643 233.03614,116.28477 339.09132,73.44336 381.02489,57.938517 423.49265,42.87859 467.62515,33.760317 486.60278,40.303612 449.0774,59.103584 441.40863,67.877998 390.16819,108.75384 335.3899,149.43669 302.70139,205.55374 c -14.65502,24.66771 -17.74377,59.54613 6.1665,80.27953 35.39675,31.60846 85.04904,42.39199 130.20282,56.61075 20.56852,6.5391 42.39279,10.85812 61.70257,20.08652 -5.939,14.11639 -38.29208,8.75767 -54.07025,13.0122 -56.2989,4.07626 -112.89931,4.74371 -169.32575,3.06534 z"
     id="path3" />
  <path
     style="fill:#000000"
     id="path2" />
  <path
     style="fill:#000000"
     id="path1" />
  <metadata
     id="metadata3">
    <rdf:RDF>
      <cc:Work
         rdf:about="">
        <dc:title>boom-yellow</dc:title>
      </cc:Work>
    </rdf:RDF>
  </metadata>
</svg>
