<?xml version="1.0" encoding="UTF-8" standalone="no"?>
<svg
   version="1.1"
   width="94.507027mm"
   height="65.411789mm"
   viewBox="0 0 535.76032 370.81947"
   id="svg1"
   xmlns="http://www.w3.org/2000/svg"
   xmlns:svg="http://www.w3.org/2000/svg"
   xmlns:rdf="http://www.w3.org/1999/02/22-rdf-syntax-ns#"
   xmlns:cc="http://creativecommons.org/ns#"
   xmlns:dc="http://purl.org/dc/elements/1.1/">
  <title
     id="title1">boom-teal</title>
  <defs
     id="defs1" />
  <path
     style="fill:#2d8c9f;fill-opacity:1;stroke-width:1.03046"
     d="M 320.62205,370.7387 C 233.39609,367.84257 145.00971,364.37985 60.17982,342.50653 39.611542,335.37785 14.84631,328.83511 3.1355772,309.20449 -8.2516198,282.79916 13.799524,257.93845 30.499291,239.45155 84.827764,182.82226 153.2654,141.59738 222.21368,104.50839 273.76911,77.939097 326.77344,54.309689 381.58005,35.052845 420.91634,21.131366 461.16807,8.1968874 502.28747,0 c 24.60858,2.816563 -16.5796,25.599208 -24.04001,33.078453 -55.44062,43.36398 -114.7266,86.147827 -152.06332,146.695737 -16.28436,26.09881 -21.88509,63.33621 1.72051,87.09307 32.02753,30.49836 76.91806,41.86303 118.00263,55.67008 64.11755,19.6048 146.5352,25.41643 34.61767,43.80056 -53.15034,4.43033 -106.59802,4.68609 -159.9029,4.4008 z"
     id="path1" />
  <metadata
     id="metadata1">
    <rdf:RDF>
      <cc:Work
         rdf:about="">
        <dc:title>boom-teal</dc:title>
      </cc:Work>
    </rdf:RDF>
  </metadata>
</svg>
