<?xml version="1.0" encoding="UTF-8" standalone="no"?>
<svg
   version="1.1"
   width="1.17667in"
   height="2.01667in"
   viewBox="0 0 353 605"
   id="svg1"
   xmlns="http://www.w3.org/2000/svg"
   xmlns:svg="http://www.w3.org/2000/svg"
   xmlns:rdf="http://www.w3.org/1999/02/22-rdf-syntax-ns#"
   xmlns:cc="http://creativecommons.org/ns#"
   xmlns:dc="http://purl.org/dc/elements/1.1/">
  <title
     id="title1">twinkle-star-pale-gold</title>
  <defs
     id="defs1">
    <linearGradient
       id="swatch6">
      <stop
         style="stop-color:#000000;stop-opacity:1;"
         offset="0"
         id="stop6" />
    </linearGradient>
  </defs>
  <path
     style="fill:#c9a227;fill-opacity:1;stroke:#e2b544;stroke-width:2.4;stroke-dasharray:none;stroke-opacity:1"
     d="m 147.36919,552.64228 c -1.98454,-63.08336 -5.0415,-126.14844 -10.2171,-189.06168 -15.01782,-18.6721 -26.44741,18.95006 -39.958394,25.0034 -4.03757,9.18095 -23.56486,24.36021 -10.18828,5.77945 9.14287,-15.98176 41.222784,-37.73042 26.725644,-55.7228 -19.474694,-5.17037 -39.937384,-9.87794 -60.248334,-10.23781 -11.05676,0.58408 -21.79513,-10.33429 -3.89208,-8.42917 21.91622,-4.20828 44.83714,-4.20423 65.558104,-12.29957 16.49359,-15.22489 -15.766204,-31.02397 -19.714494,-46.47352 -5.66497,-8.17595 -13.16834,-24.33687 -6.3809,-11.27017 10.21391,9.87139 29.265894,39.98925 42.793914,38.45951 7.86953,-16.18419 4.42696,-35.49663 7.92239,-52.93878 3.87024,-47.71703 4.86721,-95.67877 8.54077,-143.358058 4.6854,-8.679168 3.59997,17.924958 3.92475,23.005038 1.86023,55.09997 4.48978,110.23829 9.65375,165.13249 -0.73968,17.72658 14.89723,14.03934 20.92371,1.45249 12.49144,-11.16509 26.17087,-34.54289 34.65571,-40.81123 -5.02689,17.64498 -19.84747,31.02839 -29.33516,46.32669 -14.85451,8.11663 -12.66776,24.34545 5.02998,23.12508 25.20779,5.6525 51.87836,6.85504 77.3887,10.8408 -18.09501,7.19581 -37.67889,7.07722 -56.81894,13.12548 -15.41148,-0.0978 -40.44809,7.13593 -23.9116,26.46687 7.45386,13.97307 19.35809,25.15626 26.20461,39.47949 -17.42697,-10.64584 -34.5628,-39.95158 -50.93034,-40.25228 -7.06926,44.76949 -7.45583,90.24682 -10.96455,135.364 -1.38984,19.10818 -2.25034,38.33832 -4.45846,57.33711 -0.20611,0.94194 -2.66796,2.05451 -2.3034,-0.0428 z"
     id="path6" />
  <metadata
     id="metadata8">
    <rdf:RDF>
      <cc:Work
         rdf:about="">
        <dc:title>twinkle-star-pale-gold</dc:title>
      </cc:Work>
    </rdf:RDF>
  </metadata>
</svg>
