<?xml version="1.0" encoding="UTF-8" standalone="no"?>
<!-- Created with Inkscape (http://www.inkscape.org/) -->

<svg
   version="1.1"
   id="svg1"
   width="612"
   height="408"
   viewBox="650 55 430 287"
   xmlns="http://www.w3.org/2000/svg"
   xmlns:svg="http://www.w3.org/2000/svg">
  <defs
     id="defs1" />
  <g
     id="g1">
    <path
       style="fill:#000000"
       d="m 714.36803,337.28306 c -28.53792,-4.80889 -47.97021,-16.23811 -55.83679,-32.84076 -2.83479,-5.9829 -3.13429,-7.53159 -3.13429,-16.20698 0,-9.18043 0.16845,-9.92384 3.92607,-17.32694 2.6587,-5.23805 5.60489,-9.24348 9.12672,-12.40803 4.28557,-3.85081 5.50131,-5.71959 6.90935,-10.62078 5.14788,-17.91909 18.53655,-33.82915 37.78758,-44.90385 7.13043,-4.10198 23.05199,-10.11623 33.75028,-12.74892 8.60526,-2.11762 11.71331,-2.33638 33,-2.3227 25.09778,0.0161 30.1156,0.70189 50,6.83319 9.83869,3.03373 34.17387,11.84697 40.44389,14.64717 7.54265,3.36856 17.43631,3.24938 24.55611,-0.29581 3.02586,-1.50667 7.04165,-4.60775 8.92708,-6.89366 l 3.42708,-4.15503 -3.62367,-3.32085 -3.62367,-3.32085 -5.39058,1.85463 c -2.96482,1.02005 -6.92547,2.64836 -8.80145,3.61846 -4.1913,2.16741 -18.15856,6.54551 -18.80847,5.8956 -0.83372,-0.83372 1.24605,-2.16337 7.39368,-4.72694 15.66143,-6.53085 21.44646,-9.29823 21.4721,-10.27159 0.0154,-0.58238 -0.55998,-1.86284 -1.2785,-2.84548 -1.42379,-1.94715 -2.36715,-1.88284 -27.52631,1.87629 -9.83753,1.46987 -12.16729,1.39813 -12.16729,-0.37467 0,-0.97437 13.51113,-3.84653 25.4872,-5.418 9.77485,-1.28262 11.16153,-2.44469 7.8048,-6.54056 -1.49576,-1.82512 -4.02372,-2.51157 -15.292,-4.15241 -16.7591,-2.4404 -18.24039,-2.78832 -17.43305,-4.09462 0.6542,-1.05853 2.35523,-0.94783 19.26774,1.2539 4.67925,0.60916 8.68327,0.70553 9.12949,0.21973 0.43713,-0.47592 0.31031,-3.69623 -0.28184,-7.15624 -1.21782,-7.11588 -0.0772,-24.77074 3.34069,-51.70907 1.11653,-8.8 2.70768,-21.842064 3.53588,-28.982362 0.82819,-7.140297 1.88931,-13.365862 2.35804,-13.834589 0.96544,-0.965441 1.13006,-0.755146 18.64349,23.816949 7.0561,9.9 13.30408,18.335812 13.88441,18.746242 0.58033,0.41043 10.00732,0.63543 20.94886,0.5 l 19.8937,-0.24624 11.90568,-16.000002 c 6.54812,-8.8 13.50221,-18.3625 15.45353,-21.25 4.55058,-6.733796 6.03856,-6.733796 6.81413,0 0.3326,2.8875 2.4314,21 4.664,40.250002 3.2855,28.32766 3.9483,36.95404 3.4768,45.25 -0.5267,9.26729 -0.4157,10.26191 1.158,10.3742 3.244,0.23149 12.7117,-0.2815 19.0383,-1.03156 3.4639,-0.41066 6.5198,-0.38769 6.7909,0.051 0.5824,0.94229 -0.9969,1.33119 -13.5888,3.34619 -5.225,0.83612 -10.9613,1.76313 -12.7475,2.06002 -2.3237,0.38625 -3.6991,1.4131 -4.8351,3.60986 -0.8731,1.68853 -1.2057,3.45189 -0.739,3.91859 0.4667,0.46669 4.8925,1.30842 9.8351,1.87051 9.5465,1.08567 19.6714,3.40951 22.3602,5.13207 2.297,1.47159 -15.5619,0.24513 -23.6857,-1.62661 -8.7201,-2.00913 -12.50857,-1.8625 -14.70933,0.56932 -2.23358,2.46808 -1.6251,3.10788 5.52133,5.80549 12.2208,4.61302 24.4686,10.07643 24.7968,11.06117 0.4065,1.2194 -6.8127,-0.77456 -17.7968,-4.91551 -14.84285,-5.59574 -16.21887,-5.91293 -19.12695,-4.40911 -1.44828,0.74894 -3.97902,2.49411 -5.62386,3.87815 -1.64485,1.38404 -5.12731,3.43233 -7.73882,4.55176 l -4.74819,2.03531 0.86894,11.73455 c 1.2383,16.72277 0.95673,43.6705 -0.53012,50.73456 -1.06529,5.06124 -2.74175,11.16478 -5.71671,20.81306 -0.49004,1.58926 -0.31238,1.65901 1.43931,0.56506 1.66919,-1.04243 3.53668,-0.78613 11.33741,1.55593 5.13647,1.54215 12.55968,4.32216 16.49603,6.17778 6.47356,3.05171 7.40456,3.8707 9.74996,8.57736 2.9345,5.8888 3.355,12.0515 1.1777,17.26244 -1.6198,3.87662 -3.4007,5.0174 -9.21789,5.90442 -4.52221,0.68956 -6.57395,-0.63524 -6.15272,-3.97276 0.13073,-1.03581 -0.13654,-3.84339 -0.59394,-6.23906 -1.61628,-8.46544 -9.81631,-13.90748 -23.73852,-15.75433 -2.68487,-0.35612 -4.88158,-1.00224 -4.88158,-1.43579 0,-0.43354 0.88836,-2.96307 1.97413,-5.62116 1.08576,-2.6581 1.42326,-3.96433 0.75,-2.90273 -0.67327,1.06161 -2.65201,3.53661 -4.39719,5.5 l -3.17307,3.56982 -32.6902,0.1966 c -17.97961,0.10813 -32.9637,0.4701 -33.29798,0.80437 -1.87618,1.87619 5.68977,2.36997 37.78056,2.46567 19.55456,0.0583 38.38365,0.50796 41.84242,0.99921 8.74081,1.24145 14.44167,4.19695 16.52584,8.56749 2.29329,4.80909 2.18796,11.62443 -0.22574,14.60588 l -1.91122,2.36078 -57.52638,0.2737 -57.52638,0.2737 -3.08872,-6.47183 c -1.6988,-3.5595 -4.20187,-7.34743 -5.5624,-8.41762 -1.36052,-1.07018 -2.47367,-2.82308 -2.47367,-3.89532 0,-2.61294 2.88969,-10.7424 7.88589,-22.18508 2.26276,-5.18234 4.11411,-10.01984 4.11411,-10.75 0,-3.73995 -2.19075,0.10032 -7.94228,13.92245 -3.49013,8.3875 -6.87486,15.82789 -7.52162,16.5342 -0.95512,1.04306 -2.28943,0.98027 -7.10601,-0.33442 -3.26155,-0.89023 -9.53009,-1.91812 -13.93009,-2.28419 -9.2027,-0.76565 -9.04874,-0.44121 -4.82395,-10.16559 2.55907,-5.89031 2.82395,-7.58066 2.82395,-18.02103 0,-11.0854 -0.1292,-11.78491 -3.4171,-18.5 -2.36193,-4.82392 -5.60424,-9.14724 -10.5,-14.00077 -11.12833,-11.03233 -23.27415,-15.78731 -40.5829,-15.88785 -12.42353,-0.0722 -27.2254,3.51759 -24.74244,6.00054 0.2518,0.2518 3.09141,-0.22813 6.31023,-1.06653 7.73779,-2.01544 27.09144,-2.02461 34.80115,-0.0165 9.58345,2.49617 16.68347,6.54607 23.65351,13.49212 8.35101,8.32227 10.9219,14.51466 11.70648,28.19687 0.4808,8.3847 0.24069,10.67761 -1.77442,16.9446 -1.28175,3.98625 -3.50385,8.56099 -4.93801,10.16609 -2.51359,2.8132 -3.2905,3.00925 -21.56202,5.44104 -16.26729,2.16503 -23.06584,2.53889 -47.95448,2.63704 -24.72383,0.0975 -30.32709,-0.16067 -38,-1.7508 -18.49419,-3.83275 -30.40577,-10.35955 -36.74655,-20.13484 -2.14056,-3.3 -4.14389,-7.24686 -4.45185,-8.77081 -0.71972,-3.56155 -2.3016,-4.56937 -2.3016,-1.46635 0,5.60862 3.35267,12.25237 8.9508,17.73716 9.34687,9.15764 23.10119,14.49113 44.0492,17.08088 12.77291,1.57909 48.24369,0.53221 72,-2.12499 34.22353,-3.82799 52.71241,-2.3118 62.05667,5.089 6.94146,5.49773 9.33259,13.6597 5.6488,19.28186 -2.25904,3.44774 -4.41524,3.40242 -15.54608,-0.32675 -6.48765,-2.17356 -10.84741,-3 -15.82611,-3 -3.77945,0 -20.27989,1.35 -36.66764,3 -36.44835,3.6698 -65.13283,3.99934 -83.19456,0.95577 z M 908.89695,186.52139 c 2.46826,-1.64925 2.47229,-1.67456 0.31768,-1.99296 -2.54519,-0.37613 -8.31768,2.35335 -8.31768,3.93295 0,1.40917 4.68963,0.27194 8,-1.93999 z m 75.5,-1.1941 c -0.33992,-0.55 -1.29303,-1 -2.11803,-1 -0.825,0 -1.22189,0.45 -0.88197,1 0.33992,0.55 1.29303,1 2.11803,1 0.825,0 1.22189,-0.45 0.88197,-1 z m -81.05,-5.12129 c 0.56668,-0.52416 -0.0385,-0.8732 -1.5,-0.86506 -3.54214,0.0197 -6.95,1.07314 -6.95,2.14829 0,1.08774 7.04301,0.0182 8.45,-1.28323 z m 94.55,1.68031 c 0,-0.24254 -0.45,-0.7191 -1,-1.05902 -0.55,-0.33992 -1,-0.14148 -1,0.44098 0,0.58246 0.45,1.05902 1,1.05902 0.55,0 1,-0.19844 1,-0.44098 z m -6.5,-1.55902 c -0.33992,-0.55 -1.49148,-1 -2.55902,-1 -1.06754,0 -1.94098,0.45 -1.94098,1 0,0.55 1.15156,1 2.55902,1 1.45136,0 2.2915,-0.43284 1.94098,-1 z m -41.06231,-9.62219 c 1.94112,-2.54221 3.28518,-5.01721 2.98679,-5.5 -0.67943,-1.09935 -13.12772,-1.16699 -13.80261,-0.075 -0.59302,0.95953 5.25065,10.19719 6.45066,10.19719 0.45972,0 2.42404,-2.07999 4.36516,-4.62219 z m -42.93769,2.16908 c -3.08706,-1.3274 -18.47721,-3.1942 -17.39523,-2.11002 1.45712,1.46009 9.85324,3.36683 14.89523,3.38269 5.36921,0.0169 5.42866,-0.0134 2.5,-1.27267 z m 84.8287,0.0216 c 10.90275,-1.54477 14.57515,-3.0755 5.1713,-2.15547 -11.63971,1.13877 -15.50362,1.78379 -16.0579,2.68063 -0.70197,1.13581 -0.90559,1.14563 10.8866,-0.52516 z m -64.28886,-18.58884 c 4.71389,-2.40485 5.03893,-4.59934 1.21016,-8.1704 -3.11861,-2.90871 -7.1811,-5.21151 -7.90928,-4.48334 -0.26839,0.2684 -0.8432,2.89235 -1.27736,5.83102 -0.43415,2.93867 -1.12416,6.13054 -1.53335,7.09304 -0.61795,1.45354 -0.21089,1.75 2.40284,1.75 1.73075,0 4.9289,-0.90915 7.10699,-2.02032 z m 44.1604,-5.29636 c -0.22975,-3.40083 -0.78901,-6.58103 -1.2428,-7.06713 -1.09638,-1.17445 -9.6085,3.86329 -11.03667,6.53185 -1.41262,2.6395 0.0432,4.25178 5.5657,6.1637 6.40101,2.21609 7.19856,1.54747 6.71377,-5.62842 z m -57.20024,-0.11186 c 0,-9.49765 -2.36925,-11.00364 -11.75,-7.46878 -2.79453,1.05304 -2.7901,1.48822 0.0631,6.20137 2.47898,4.09503 7.11018,7.67875 9.93694,7.68939 1.48587,0.006 1.75,-0.96369 1.75,-6.42198 z m 68.49844,4.42953 c 4.33506,-2.67921 8.8575,-9.46534 7.20841,-10.81655 -1.693,-1.3872 -9.66173,-3.4157 -11.15984,-2.84082 -0.68893,0.26436 -1.51938,3.11794 -1.86236,6.39945 -0.34046,3.25728 -0.90692,6.67262 -1.25882,7.58964 -0.9129,2.37898 2.98221,2.19629 7.07261,-0.33172 z"
       id="path1" />
  </g>
</svg>
