<?xml version="1.0" encoding="UTF-8" standalone="no"?>
<!-- Created with Inkscape (http://www.inkscape.org/) -->

<svg
   version="1.1"
   id="svg1"
   width="954.44666"
   height="616.05817"
   viewBox="0 0 954.44666 616.05817"
   xmlns="http://www.w3.org/2000/svg"
   xmlns:svg="http://www.w3.org/2000/svg">
  <defs
     id="defs1" />
  <g
     id="g1"
     transform="translate(-164.85805,-219.96735)">
    <path
       style="fill:#000000"
       d="m 473.02075,828.16978 c -3.32689,-57.28032 11.30787,-126.96228 65.75149,-156.50915 19.4072,15.04775 58.05017,13.26051 67.03418,34.48409 -17.56961,39.53534 -20.93006,83.53617 -17.9041,126.23904 -12.46364,-3.23456 -33.4866,7.27466 -39.1671,-6.90938 -7.11656,-30.21152 -11.50235,-0.56825 -21.42886,7.40938 -20.72214,11.09361 -20.1526,-41.94753 -30.65995,-12 0.62771,13.03394 -21.04363,17.56878 -23.62566,7.28602 z m 443.42037,4.05715 c -4.60846,-42.52094 -49.95068,-66.25261 -52.5709,-109.59168 33.94142,-6.49075 69.00259,-9.62649 102.0778,-20.83854 34.83218,34.95074 61.09288,80.62455 65.95298,130.33705 -22.2998,8.44093 -38.47675,-5.81752 -46.06278,-18.49881 0.95969,19.00186 -24.79613,28.28754 -30.09029,8.672 -11.63144,-29.94728 -10.61521,28.72017 -39.30681,9.91998 z M 324.61543,815.63376 c 2.16647,-48.42127 14.72031,-102.17406 53.45885,-134.31641 19.79702,21.98671 68.89968,31.13169 74.4864,54.66765 -23.5112,24.53741 1.03323,94.56514 -47.1275,82.89876 -21.82543,8.17268 -17.26957,-42.42262 -29.52833,-4.80151 -11.33571,16.13838 -24.41731,-5.98769 -24.967,-19.31019 -7.35244,2.45843 -7.18048,29.15882 -22.12273,24.1117 -3.15653,-0.28502 -5.40415,1.46458 -4.19969,-3.25 z m 457.98969,-8.09947 c -0.084,-25.70754 47.72005,-5.33474 65.47833,-15.78671 22.2136,-9.22839 46.72748,-2.02748 41.71174,26.49116 -10.55317,-0.91678 -30.22307,5.23707 -37.77599,-3.44643 -2.20751,-20.21493 -23.10739,22.00802 -34.41978,-2.08781 -8.0175,-24.47147 -11.87511,18.50523 -31.83441,6.17926 -6.38527,1.9565 -1.75201,-8.16244 -3.15989,-11.34947 z m -46.5,-26.32489 c -44.21837,-3.41328 -90.50093,-6.14234 -132.39003,-19.73102 5.43796,-28.99886 11.38022,-75.10385 50.89081,-51.92935 63.51034,11.73675 128.3719,16.49909 192.89062,12.85827 3.02677,23.83662 39.52729,62.76864 -6.1939,55.73659 -34.9429,3.51531 -70.11279,4.17077 -105.1975,3.06551 z m 268.52638,-55.28682 c -10.95675,-16.82101 -40.44031,-33.54214 -3.912,-38.86478 34.944,-35.02466 72.7269,-3.83176 111.1356,7.8778 29.1676,12.72808 -35.595,31.24034 -52.1292,32.56166 -18.1589,-0.22977 -43.3499,2.41176 -55.0944,-1.57468 z M 458.08607,712.98502 C 380.28163,677.72655 317.15049,611.11946 291.9315,528.85876 277.75821,484.72899 262.94102,438.51922 225.90774,407.70999 c -24.67195,-25.1737 -54.51812,-54.9556 -61.04969,-88.64818 17.33124,7.66547 68.05196,10.24875 23.59446,-0.15555 -54.71172,-9.43723 -0.57983,-66.99353 25.16167,-81.73816 56.55748,-36.29626 135.22584,-11.84704 170.86718,42.45345 44.76984,61.32498 29.41914,140.9267 35.82509,211.75546 4.96383,69.31755 43.59804,135.42923 103.39558,171.53385 -29.45975,9.59615 -36.09654,73.63816 -65.61596,50.07416 z M 300.82188,329.49216 c 39.66908,-13.63614 23.56463,-84.02751 -12.62535,-76.55167 11.10131,29.29566 -38.50897,53.08255 -31.78491,15.94356 -20.51533,28.94198 8.07024,77.63354 44.41026,60.60811 z m 464.28324,375.29047 c -25.80055,-1.15838 -64.43858,3.49516 -45.76595,-33.6226 7.68279,-48.38793 15.19431,-96.80309 22.62625,-145.23017 34.61062,-11.40201 69.2884,-22.62893 104.2077,-33.0461 27.55191,26.5665 54.84287,55.04673 75.26577,87.28135 6.13859,37.0561 12.18653,74.17222 16.42003,111.50061 -56.45277,13.01074 -115.02344,15.80448 -172.7538,13.11691 z m -79,-7.51197 C 614.431,685.27429 536.17571,666.34375 486.60511,609.05718 c 28.42972,-61.47215 72.84635,-115.80904 127.86841,-155.41796 38.41787,22.57359 76.40204,45.91375 114.0163,69.79951 -7.72549,58.64756 -18.38219,116.92396 -27.1356,175.44503 -5.12024,-0.0505 -10.19305,-0.90511 -15.2491,-1.6131 z m 265.1733,-10.1369 c -4.95004,-35.58315 -11.07178,-71.04685 -15.3232,-106.71996 32.13038,-7.83403 78.03358,-32.67566 77.42238,20.13494 15.4891,33.05642 14.8226,68.42193 -28.26584,75.2896 -10.96198,3.77077 -22.47295,10.32564 -33.83334,11.29542 z M 470.65009,589.7539 c -10.37105,-24.05987 -40.40084,-58.38186 -23.25773,-83.83404 43.74696,-58.4012 105.65039,-103.82749 176.08266,-124.0361 -10.95141,37.16229 -18.58467,73.56784 -56.22298,93.22935 -37.35997,34.5125 -66.70728,76.67887 -90.68479,121.29405 z m 451.45503,-33.51668 c -21.40742,-26.14164 -43.59328,-51.67609 -67.2096,-75.85346 -0.19586,-26.37673 -14.53113,-63.18036 -9.82473,-81.81705 65.19537,30.72817 121.22282,84.98784 149.85783,151.36987 -20.23549,0.54336 -59.734,29.96246 -72.8235,6.30064 z m -221.1713,-67.02908 c -26.67112,-16.31618 -53.44046,-32.47161 -80.33848,-48.41108 6.846,-21.89555 6.08031,-62.39222 33.69605,-66.67356 56.78733,-12.41852 117.8539,-8.18913 171.01333,16.13178 -0.60411,26.72212 30.32473,75.87629 6.87775,92.20089 -31.47349,9.75559 -62.7889,20.03373 -94.41985,29.27302 -12.27627,-7.50702 -24.55253,-15.01403 -36.8288,-22.52105 z"
       id="path1" />
  </g>
</svg>
