<?xml version="1.0" encoding="UTF-8" standalone="no"?>
<svg
   version="1.1"
   width="5.0571184in"
   height="2.6615498in"
   viewBox="0 0 1517.1356 798.46496"
   id="svg1"
   xmlns="http://www.w3.org/2000/svg"
   xmlns:svg="http://www.w3.org/2000/svg"
   xmlns:rdf="http://www.w3.org/1999/02/22-rdf-syntax-ns#"
   xmlns:cc="http://creativecommons.org/ns#">
  <defs
     id="defs1" />
  <metadata
     id="metadata1">
    <rdf:RDF>
      <cc:Work
         rdf:about="" />
    </rdf:RDF>
  </metadata>
  <g
     id="g4">
    <g
       id="g3">
      <path
         style="fill:#e2b544;fill-opacity:1"
         d="m 776.50483,759.75 c -23.2312,-95.61526 -51.6898,-187.56149 -79.9961,-258.45775 -15.1739,-38.00447 -38.7163,-88.21764 -55.1018,-117.52523 l -7.1188,-12.73299 14.5987,-26.26701 c 17.5544,-31.58529 45.767,-87.7368 57.9142,-115.26702 30.1035,-68.22565 54.6248,-141.211915 73.1579,-217.75 1.5648,-6.462499 3.1097,-11.75 3.4331,-11.75 0.3234,0 1.8683,5.287501 3.4331,11.75 18.533,76.538085 43.0543,149.52435 73.1578,217.75 12.1473,27.53022 40.3598,83.68173 57.9143,115.26702 l 14.5987,26.26701 -7.1189,12.73299 c -16.3854,29.30759 -39.9279,79.52076 -55.1017,117.52523 -28.3064,70.89626 -56.765,162.84249 -79.9962,258.45775 -3.5078,14.4375 -6.607,26.25 -6.8871,26.25 -0.2801,0 -3.3793,-11.8125 -6.8872,-26.25 z"
         id="path1" />
      <path
         style="fill:#e2b544;fill-opacity:1"
         d="m 1179.5387,760.4425 c -23.2313,-95.61526 -51.6899,-187.56149 -79.9962,-258.45775 -15.1739,-38.00447 -38.7163,-88.21764 -55.1018,-117.52523 l -7.1188,-12.73299 14.5987,-26.26701 c 17.5544,-31.58529 45.767,-87.7368 57.9142,-115.26702 30.1035,-68.22565 54.6249,-141.211915 73.1579,-217.750002 1.5648,-6.462499 3.1097,-11.75 3.4331,-11.75 0.3234,0 1.8683,5.287501 3.4331,11.75 18.533,76.538087 43.0543,149.524352 73.1578,217.750002 12.1473,27.53022 40.3598,83.68173 57.9143,115.26702 l 14.5987,26.26701 -7.1188,12.73299 c -16.3855,29.30759 -39.928,79.52076 -55.1018,117.52523 -28.3063,70.89626 -56.765,162.84249 -79.9962,258.45775 -3.5078,14.4375 -6.607,26.25 -6.8871,26.25 -0.2801,0 -3.3793,-11.8125 -6.8871,-26.25 z"
         id="path2" />
      <path
         style="fill:#e2b544;fill-opacity:1"
         d="M 401.17101,772.21497 C 377.9398,676.59971 349.48119,584.65348 321.17483,513.75722 306.001,475.75275 282.45854,425.53958 266.07309,396.23199 l -7.11883,-12.73299 14.59868,-26.26701 c 17.55446,-31.58529 45.76699,-87.7368 57.91426,-115.26702 30.1035,-68.22565 54.62481,-141.21192 73.15783,-217.750007 1.56483,-6.4625 3.10974,-11.75 3.43312,-11.75 0.32338,0 1.86829,5.2875 3.43312,11.75 18.53302,76.538087 43.05433,149.524357 73.15783,217.750007 12.14728,27.53022 40.35983,83.68173 57.91423,115.26702 l 14.5987,26.26701 -7.1188,12.73299 c -16.3855,29.30759 -39.9279,79.52076 -55.10175,117.52523 -28.30637,70.89626 -56.76498,162.84249 -79.99619,258.45775 -3.50782,14.4375 -6.60703,26.25 -6.88714,26.25 -0.28011,0 -3.37932,-11.8125 -6.88714,-26.25 z"
         id="path3" />
      <path
         style="fill:#d86a2e;fill-opacity:1;stroke-width:2.2243"
         d="M 12.928887,651.5924 C 33.861517,635.03559 174.45443,526.09524 253.99728,464.79716 288.64671,438.0953 327.10401,408.12399 339.45802,398.19423 L 361.9199,380.14008 314.52073,329.01073 C 288.45124,300.88963 243.23765,251.88399 214.04624,220.1093 184.85467,188.33465 147.74556,148.16538 131.5815,130.84432 52.929377,46.562415 54.595307,48.538168 62.127627,48.471875 c 3.74624,-0.0331 48.548683,12.117156 99.561033,27.000302 51.01233,14.883183 129.17481,37.541673 173.69435,50.352203 332.75822,95.7516 753.10609,221.37325 1044.65259,312.1961 135.9655,42.35613 140.291,43.78401 136.2013,44.96146 -1.9055,0.54864 -15.2291,2.44198 -29.608,4.2075 -14.3788,1.76551 -61.9489,7.61097 -105.7112,12.98991 -43.7623,5.37896 -159.3627,19.58431 -256.8898,31.56749 -97.5271,11.98315 -198.29427,24.37167 -223.92727,27.52997 C 762.47423,576.2343 28.960957,661.64189 3.8109068,663.63748 c -6.33353,0.50256 -5.71804,-0.31017 9.1179802,-12.04508 z"
         id="path1-5" />
      <path
         style="fill:#c9b26b;fill-opacity:1;stroke:#e2b544;stroke-width:0.637575;stroke-dasharray:none;stroke-opacity:1"
         d="m 229.9411,211.18241 c -0.569,-15.52632 -1.4455,-31.04814 -2.9296,-46.5326 -4.3062,-4.59564 -7.5835,4.66406 -11.4576,6.15393 -1.1577,2.25966 -6.757,5.99563 -2.9214,1.42246 2.6216,-3.93348 11.8202,-9.28635 7.6633,-13.71471 -5.5842,-1.27255 -11.4516,-2.43119 -17.2755,-2.51976 -3.1704,0.14375 -6.2495,-2.54353 -1.116,-2.07462 6.2842,-1.03577 12.8565,-1.03477 18.798,-3.02723 4.7294,-3.74721 -4.5208,-7.63573 -5.6529,-11.43824 -1.6244,-2.01229 -3.7759,-5.98989 -1.8297,-2.77385 2.9288,2.42958 8.3917,9.8423 12.2707,9.46579 2.2565,-3.9833 1.2694,-8.73656 2.2717,-13.02949 1.1097,-11.74431 1.3956,-23.54884 2.4489,-35.283836 1.3435,-2.13616 1.0323,4.411746 1.1254,5.662076 0.5334,13.56143 1.2874,27.13228 2.7681,40.64306 -0.2121,4.36293 4.2716,3.45542 5.9997,0.35749 3.5817,-2.74799 7.5042,-8.50183 9.9371,-10.04462 -1.4414,4.34285 -5.691,7.63683 -8.4115,11.4021 -4.2594,1.99771 -3.6324,5.992 1.4423,5.69164 7.228,1.39121 14.8755,1.68719 22.1903,2.66818 -5.1885,1.77106 -10.804,1.74188 -16.2922,3.23049 -4.4191,-0.0241 -11.598,1.75632 -6.8564,6.51413 2.1373,3.43911 5.5507,6.19156 7.5139,9.71685 -4.997,-2.6202 -9.9105,-9.83304 -14.6037,-9.90705 -2.027,11.01885 -2.1379,22.21191 -3.144,33.31631 -0.3985,4.70299 -0.6452,9.43599 -1.2784,14.11204 -0.059,0.23184 -0.765,0.50567 -0.6605,-0.0105 z"
         id="path6" />
      <path
         style="fill:#d86a2e;fill-opacity:1;stroke:#e2b544;stroke-width:0.943468;stroke-dasharray:none;stroke-opacity:1"
         d="m 779.92334,248.53495 c -0.73216,-26.42232 -1.85998,-52.83697 -3.76963,-79.18805 -5.54095,-7.82075 -9.75797,7.93718 -14.74291,10.47261 -1.48966,3.84544 -8.69449,10.20322 -3.75908,2.42071 3.3733,-6.69391 15.20949,-15.80328 9.86066,-23.33936 -7.18541,-2.16559 -14.7352,-4.13735 -22.22904,-4.28807 -4.07946,0.24464 -8.04146,-4.32852 -1.43599,-3.53053 8.08611,-1.76265 16.54293,-1.76095 24.18808,-5.15167 6.0855,-6.37691 -5.81708,-12.99431 -7.2738,-19.46532 -2.09017,-3.42446 -4.85859,-10.19345 -2.35434,-4.72047 3.7686,4.1346 10.79791,16.74939 15.78916,16.10865 2.90353,-6.77868 1.63339,-14.86767 2.92308,-22.17327 1.4279,-19.98619 1.79577,-40.074847 3.15109,-60.04519 1.72873,-3.635266 1.32831,7.507813 1.4481,9.635595 0.68635,23.078511 1.65655,46.173055 3.56181,69.165385 -0.27291,7.42472 5.49643,5.88033 7.72004,0.60836 4.6087,-4.67647 9.65593,-14.4682 12.78643,-17.09369 -1.8547,7.39055 -7.32282,12.99618 -10.82339,19.40382 -5.48072,3.39965 -4.67394,10.19703 1.85587,9.68589 9.30054,2.36753 19.14086,2.87122 28.55308,4.54065 -6.67625,3.01395 -13.90191,2.96428 -20.96378,5.49756 -5.68622,-0.0411 -14.92357,2.98886 -8.82239,11.08559 2.75015,5.8526 7.14229,10.53665 9.66842,16.5359 -6.42983,-4.45899 -12.75221,-16.73362 -18.79112,-16.85958 -2.60822,18.75161 -2.75091,37.7997 -4.0455,56.69688 -0.51277,8.00345 -0.83021,16.05795 -1.64497,24.01553 -0.076,0.39455 -0.98434,0.86055 -0.84988,-0.0179 z"
         id="path6-4" />
      <path
         style="fill:#d86a2e;fill-opacity:1;stroke:#e2b544;stroke-width:1.10838;stroke-dasharray:none;stroke-opacity:1"
         d="m 1184.9082,270.73197 c -0.8531,-31.29289 -2.1675,-62.5767 -4.3928,-93.78522 -6.457,-9.26238 -11.3712,9.40029 -17.1803,12.40308 -1.7359,4.55429 -10.1319,12.08403 -4.3805,2.86694 3.9309,-7.92783 17.724,-18.71639 11.4908,-27.64164 -8.3733,-2.56479 -17.1713,-4.9 -25.904,-5.0785 -4.754,0.28972 -9.371,-5.12642 -1.6735,-4.18135 9.423,-2.08756 19.278,-2.08555 28.1871,-6.10129 7.0916,-7.55241 -6.7788,-15.38961 -8.4764,-23.05348 -2.4358,-4.05571 -5.6619,-12.07246 -2.7436,-5.59061 4.3917,4.89675 12.5831,19.83689 18.3995,19.07804 3.3836,-8.02823 1.9035,-17.6083 3.4064,-26.2606 1.6639,-23.670333 2.0926,-47.462045 3.6721,-71.113624 2.0145,-4.305372 1.5479,8.891764 1.6875,11.411771 0.7998,27.332699 1.9303,54.684383 4.1506,81.915003 -0.318,8.79337 6.4052,6.96431 8.9964,0.72051 5.3707,-5.53849 11.2523,-17.13521 14.9004,-20.24466 -2.1614,8.75289 -8.5335,15.39183 -12.6128,22.98063 -6.3869,4.02633 -5.4467,12.07671 2.1626,11.47135 10.8383,2.80394 22.3054,3.40048 33.2737,5.37764 -7.78,3.56953 -16.2002,3.51071 -24.4296,6.51097 -6.6263,-0.0486 -17.3908,3.53981 -10.2809,13.12905 3.2047,6.93143 8.323,12.47892 11.2668,19.58405 -7.4929,-5.28095 -14.8605,-19.81822 -21.8978,-19.96739 -3.0395,22.20819 -3.2057,44.76751 -4.7143,67.14813 -0.5976,9.47875 -0.9675,19.01798 -1.917,28.44244 -0.088,0.46726 -1.1471,1.01916 -0.9904,-0.0211 z"
         id="path6-4-8" />
      <text
         xml:space="preserve"
         style="font-size:320.683px;font-family:'Fontdiner Swanky';-inkscape-font-specification:'Fontdiner Swanky, Normal';writing-mode:lr-tb;direction:ltr;fill:#1f6f7e;fill-opacity:1;stroke:#154e58;stroke-width:3.59717"
         x="375.40417"
         y="443.63611"
         id="text1"
         transform="matrix(0.95151478,0.0615317,-0.0498537,1.0477319,0,0)"><tspan
           id="tspan1"
           style="font-size:320.683px;fill:#1f6f7e;fill-opacity:1;stroke-width:3.59717"
           x="375.40417"
           y="443.63611">Barky</tspan></text>
    </g>
  </g>
</svg>
