<?xml version="1.0" encoding="UTF-8" standalone="no"?>
<svg
   version="1.1"
   width="5.0571184in"
   height="2.6615498in"
   viewBox="0 0 1517.1356 798.46496"
   id="svg1"
   sodipodi:docname="bsp-logo.svg"
   inkscape:version="1.4.4 (dcaf3e7, 2026-05-05)"
   xmlns:inkscape="http://www.inkscape.org/namespaces/inkscape"
   xmlns:sodipodi="http://sodipodi.sourceforge.net/DTD/sodipodi-0.dtd"
   xmlns="http://www.w3.org/2000/svg"
   xmlns:svg="http://www.w3.org/2000/svg"
   xmlns:rdf="http://www.w3.org/1999/02/22-rdf-syntax-ns#"
   xmlns:cc="http://creativecommons.org/ns#"
   xmlns:dc="http://purl.org/dc/elements/1.1/">
  <sodipodi:namedview
     id="namedview1"
     pagecolor="#505050"
     bordercolor="#eeeeee"
     borderopacity="1"
     inkscape:showpageshadow="0"
     inkscape:pageopacity="0"
     inkscape:pagecheckerboard="0"
     inkscape:deskcolor="#505050"
     inkscape:document-units="in"
     inkscape:zoom="2.2563244"
     inkscape:cx="179.93866"
     inkscape:cy="136.28359"
     inkscape:window-width="2560"
     inkscape:window-height="1494"
     inkscape:window-x="-11"
     inkscape:window-y="-11"
     inkscape:window-maximized="1"
     inkscape:current-layer="svg1" />
  <title
     id="title1">diamond-gold</title>
  <defs
     id="defs1" />
  <metadata
     id="metadata1">
    <rdf:RDF>
      <cc:Work
         rdf:about="">
        <dc:title>diamond-gold</dc:title>
      </cc:Work>
    </rdf:RDF>
  </metadata>
  <g
     id="g2"
     transform="translate(-502.05727,0.00742008)">
    <path
       style="fill:#e2b544;fill-opacity:1"
       d="m 1278.5621,759.74258 c -23.2312,-95.61526 -51.6898,-187.56149 -79.9961,-258.45775 -15.1739,-38.00447 -38.7163,-88.21764 -55.1018,-117.52523 l -7.1188,-12.73299 14.5987,-26.26701 c 17.5544,-31.58529 45.767,-87.7368 57.9142,-115.26702 30.1035,-68.22565 54.6248,-141.211915 73.1579,-217.75 1.5648,-6.4624996 3.1097,-11.75000008 3.4331,-11.75000008 0.3234,0 1.8683,5.28750048 3.4331,11.75000008 18.533,76.538085 43.0543,149.52435 73.1578,217.75 12.1473,27.53022 40.3598,83.68173 57.9143,115.26702 l 14.5987,26.26701 -7.1189,12.73299 c -16.3854,29.30759 -39.9279,79.52076 -55.1017,117.52523 -28.3064,70.89626 -56.765,162.84249 -79.9962,258.45775 -3.5078,14.4375 -6.607,26.25 -6.8871,26.25 -0.2801,0 -3.3793,-11.8125 -6.8872,-26.25 z"
       id="path1" />
    <path
       style="fill:#e2b544;fill-opacity:1"
       d="m 1681.596,760.43508 c -23.2313,-95.61526 -51.6899,-187.56149 -79.9962,-258.45775 -15.1739,-38.00447 -38.7163,-88.21764 -55.1018,-117.52523 l -7.1188,-12.73299 14.5987,-26.26701 c 17.5544,-31.58529 45.767,-87.7368 57.9142,-115.26702 30.1035,-68.22565 54.6249,-141.211915 73.1579,-217.750002 1.5648,-6.4624996 3.1097,-11.75000008 3.4331,-11.75000008 0.3234,0 1.8683,5.28750048 3.4331,11.75000008 18.533,76.538087 43.0543,149.524352 73.1578,217.750002 12.1473,27.53022 40.3598,83.68173 57.9143,115.26702 l 14.5987,26.26701 -7.1188,12.73299 c -16.3855,29.30759 -39.928,79.52076 -55.1018,117.52523 -28.3063,70.89626 -56.765,162.84249 -79.9962,258.45775 -3.5078,14.4375 -6.607,26.25 -6.8871,26.25 -0.2801,0 -3.3793,-11.8125 -6.8871,-26.25 z"
       id="path2" />
    <path
       style="fill:#e2b544;fill-opacity:1"
       d="M 903.22828,772.20755 C 879.99707,676.59229 851.53846,584.64606 823.2321,513.7498 808.05827,475.74533 784.51581,425.53216 768.13036,396.22457 l -7.11883,-12.73299 14.59868,-26.26701 c 17.55446,-31.58529 45.76699,-87.7368 57.91426,-115.26702 30.1035,-68.22565 54.62481,-141.21192 73.15783,-217.750007 1.56483,-6.4625 3.10974,-11.75 3.43312,-11.75 0.32338,0 1.86829,5.2875 3.43312,11.75 18.53302,76.538087 43.05433,149.524357 73.15783,217.750007 12.14728,27.53022 40.35983,83.68173 57.91423,115.26702 l 14.5987,26.26701 -7.1188,12.73299 c -16.3855,29.30759 -39.9279,79.52076 -55.10175,117.52523 -28.30637,70.89626 -56.76498,162.84249 -79.99619,258.45775 -3.50782,14.4375 -6.60703,26.25 -6.88714,26.25 -0.28011,0 -3.37932,-11.8125 -6.88714,-26.25 z"
       id="path3" />
    <path
       style="fill:#b04a1d;fill-opacity:1;stroke-width:2.2243"
       d="m 514.98616,651.58498 c 20.93263,-16.55681 161.52554,-125.49716 241.06839,-186.79524 34.64943,-26.70186 73.10673,-56.67317 85.46074,-66.60293 L 863.97717,380.13266 816.578,329.00331 C 790.50851,300.88221 745.29492,251.87657 716.10351,220.10188 686.91194,188.32723 649.80283,148.15796 633.63877,130.8369 554.98665,46.554995 556.65258,48.530748 564.1849,48.464455 c 3.74624,-0.0331 48.54868,12.117156 99.56103,27.000302 51.01233,14.883183 129.17481,37.541673 173.69435,50.352203 332.75822,95.7516 753.10612,221.37325 1044.65262,312.1961 135.9655,42.35613 140.291,43.78401 136.2013,44.96146 -1.9055,0.54864 -15.2291,2.44198 -29.608,4.2075 -14.3788,1.76551 -61.9489,7.61097 -105.7112,12.98991 -43.7623,5.37896 -159.3627,19.58431 -256.8898,31.56749 -97.5271,11.98315 -198.2943,24.37167 -223.9273,27.52997 -137.6264,16.95749 -871.13967,102.36508 -896.28972,104.36067 -6.33353,0.50256 -5.71804,-0.31017 9.11798,-12.04508 z"
       id="path1-5" />
    <path
       d="m 1658.7135,205.02853 c 0.6796,-0.12171 0.6796,-0.12171 1.5315,0 0.6988,0.83854 0.6988,0.83854 1.3785,1.94724 0.6769,1.09088 1.3005,2.07671 2.1538,3.00245 0.724,0.83356 1.1858,1.65016 1.6775,2.66827 0.4808,0.94759 1.0798,1.77755 1.6824,2.63182 0.2715,0.38803 0.5427,0.77633 0.8136,1.16487 0.2127,0.30444 0.2127,0.30444 0.4296,0.61503 0.7719,1.11555 1.5248,2.24689 2.2794,3.37708 1.2344,1.84582 2.4812,3.67936 3.7418,5.50296 1.4709,2.13193 2.9113,4.28934 4.3537,6.44548 0.8294,1.23929 1.6606,2.47711 2.4916,3.71511 0.3004,0.44757 0.6007,0.89515 0.901,1.34274 0.1258,0.18746 0.2516,0.37492 0.3812,0.56806 0.3834,0.5714 0.3834,0.5714 0.7146,1.27976 0.7407,0.83309 1.2897,0.83268 2.3146,0.85814 0.2344,-8.7e-4 0.4688,-0.003 0.7103,-0.003 0.2482,0.004 0.4963,0.008 0.752,0.0122 0.8216,0.0112 1.6429,0.0122 2.4646,0.0122 0.5712,0.004 1.1424,0.007 1.7135,0.0114 1.1982,0.007 2.3963,0.008 3.5945,0.005 1.5339,-0.002 3.0672,0.0131 4.601,0.0328 1.1802,0.0126 2.3603,0.0143 3.5406,0.0129 0.5653,8.8e-4 1.1306,0.005 1.6959,0.0146 0.7922,0.011 1.5832,0.007 2.3754,-8.7e-4 0.3488,0.01 0.3488,0.01 0.7047,0.0196 0.9476,-0.0229 1.6584,-0.13267 2.3955,-0.82294 0.7666,-0.97481 1.3658,-1.99382 1.9255,-3.12816 0.5935,-1.1556 0.5935,-1.1556 1.2828,-1.91658 1.0008,-1.12979 1.8204,-2.34671 2.6611,-3.62567 0.3091,-0.46586 0.6182,-0.93172 0.9273,-1.39758 0.1516,-0.23021 0.3032,-0.46043 0.4594,-0.69762 0.3247,-0.4888 0.6533,-0.97444 0.985,-1.45741 0.1654,-0.24125 0.3308,-0.4825 0.5012,-0.73106 0.1503,-0.217 0.3006,-0.43401 0.4554,-0.65758 0.4233,-0.63498 0.4233,-0.63498 0.673,-1.62802 0.5096,-0.57163 1.0203,-1.14204 1.5315,-1.71187 0.6253,-0.86364 1.2119,-1.75757 1.7997,-2.65338 0.3228,-0.48697 0.6459,-0.97379 0.9692,-1.46043 0.1549,-0.2337 0.3097,-0.46738 0.4693,-0.70815 0.8419,-1.26199 1.7096,-2.5015 2.5819,-3.73735 -0.1011,-0.22597 -0.2022,-0.45193 -0.3063,-0.68475 0.3032,-0.11298 0.6065,-0.22596 0.9189,-0.34237 0.5431,-0.66524 0.5431,-0.66524 1.0733,-1.49521 0.2016,-0.3032 0.4032,-0.60639 0.6109,-0.91878 0.2086,-0.3191 0.4173,-0.63818 0.6324,-0.96694 0.2098,-0.31643 0.4197,-0.63288 0.6359,-0.95891 0.7712,-1.16567 1.5353,-2.32831 2.2549,-3.53473 0.2022,0 0.4044,0 0.6127,0 0.5655,2.10708 0.7344,4.12873 0.8519,6.32186 0.06,1.07768 0.1431,2.14756 0.2393,3.22178 0.1278,1.50658 0.1596,2.98091 0.134,4.49363 0.2022,0.11299 0.4044,0.22597 0.6127,0.34238 0.014,0.36692 0.028,0.73384 0.043,1.11188 0.1532,3.64599 0.4551,7.24819 0.8538,10.8701 0.1744,1.58639 0.3426,3.17359 0.5105,4.76084 0.053,0.4981 0.053,0.4981 0.1066,1.00627 0.4979,4.73874 0.9269,9.48579 1.3619,14.23215 0.031,0.33644 0.062,0.67288 0.094,1.01951 0.057,0.62593 0.1145,1.25191 0.1712,1.87792 0.2136,2.95855 0.2136,2.95855 0.6981,5.86366 0.2359,1.12471 0.247,2.27356 0.2968,3.42374 0.083,1.75844 0.1793,3.51032 0.3254,5.26397 0.4031,5.45803 -0.268,10.49085 -2.0102,15.62074 3.6549,-0.40583 7.2795,-0.95705 10.907,-1.60186 1.8001,-0.31132 3.5062,-0.52704 5.3279,-0.45237 0,-0.22596 0,-0.45193 0,-0.68474 0.3664,0.007 0.7328,0.014 1.1104,0.0214 0.8371,0.006 1.488,-0.057 2.3165,-0.25678 0.8615,-0.10699 0.8615,-0.10699 1.723,0.29958 0.7399,0.68515 0.8238,0.9666 0.9764,1.99004 0.2022,0.11298 0.4044,0.22596 0.6126,0.34237 -0.3032,0.11299 -0.6065,0.22596 -0.9189,0.34237 -0.1011,-0.22596 -0.2022,-0.45193 -0.3063,-0.68474 -0.2616,0.10566 -0.5231,0.21132 -0.7926,0.32018 -1.0329,0.36024 -1.9959,0.55855 -3.0671,0.71972 -0.3955,0.0605 -0.7911,0.12107 -1.1986,0.18344 -0.4274,0.0634 -0.8548,0.12687 -1.2822,0.19029 -0.4416,0.0671 -0.8832,0.13436 -1.3248,0.20185 -1.1581,0.17659 -2.3166,0.35097 -3.4751,0.52472 -1.8574,0.2788 -3.7145,0.56028 -5.5714,0.84301 -0.648,0.0982 -1.296,0.19512 -1.9441,0.29186 -0.3926,0.0595 -0.7852,0.11891 -1.1898,0.18017 -0.3461,0.0519 -0.6922,0.10383 -1.0488,0.15732 -0.8767,0.13123 -0.8767,0.13123 -1.773,0.49591 -0.2022,-0.11298 -0.4044,-0.22597 -0.6127,-0.34237 -0.1137,0.51901 -0.1137,0.51901 -0.2297,1.04852 -0.3512,1.39389 -0.9335,2.51298 -1.6082,3.74469 0.2666,0.0252 0.2666,0.0252 0.5385,0.0509 0.3589,0.0383 0.3589,0.0383 0.7251,0.0775 0.2345,0.0239 0.4691,0.0477 0.7108,0.0723 0.7825,0.14177 0.7825,0.14177 1.5931,0.46073 1.1684,0.416 2.3369,0.65998 3.5437,0.88201 0.237,0.0446 0.4741,0.0893 0.7184,0.13523 0.499,0.0935 0.9982,0.18605 1.4975,0.27786 0.7593,0.14003 1.5179,0.28391 2.2765,0.42813 0.4872,0.0907 0.9744,0.18124 1.4616,0.27149 0.2244,0.0428 0.4488,0.0856 0.6799,0.12965 1.3594,0.24643 2.6441,0.33577 4.0214,0.29564 0,0.22597 0,0.45194 0,0.68474 1.5162,0.11299 3.0325,0.22598 4.5947,0.34238 0,-0.11298 0,-0.22597 0,-0.34238 0.6065,0 1.213,0 1.8379,0 0,0.45194 0,0.90387 0,1.3695 0.1011,0.33895 0.2022,0.67789 0.3064,1.02712 -0.2022,0.33894 -0.4044,0.67789 -0.6127,1.02711 -1.1119,-0.11298 -2.2238,-0.22596 -3.3695,-0.34236 -0.1011,0.22595 -0.2021,0.45193 -0.3063,0.68474 0,-0.33895 0,-0.6779 0,-1.02712 -0.2464,0.0636 -0.4928,0.1271 -0.7466,0.19259 -0.2591,0.0494 -0.5181,0.0989 -0.785,0.14979 -0.1011,-0.11299 -0.2022,-0.22598 -0.3063,-0.34238 -0.8867,-0.20448 -1.769,-0.38769 -2.6611,-0.55635 -0.2462,-0.0503 -0.4924,-0.10064 -0.7461,-0.15247 -1.4021,-0.26653 -2.5382,-0.35679 -3.9444,0.0241 -0.1011,-0.22597 -0.2022,-0.45193 -0.3063,-0.68475 -0.7256,-0.20806 -1.4295,-0.37298 -2.1658,-0.51623 -0.2189,-0.0446 -0.4377,-0.0892 -0.6632,-0.13523 -0.4648,-0.0941 -0.9299,-0.18664 -1.3952,-0.27786 -0.7065,-0.13888 -1.412,-0.28311 -2.1176,-0.42813 -0.4522,-0.0908 -0.9045,-0.18133 -1.3569,-0.27149 -0.209,-0.0428 -0.4181,-0.0856 -0.6335,-0.12966 -1.3208,-0.25542 -2.5812,-0.38942 -3.9205,-0.29564 -0.6468,0.62681 -0.6468,0.62681 -1.053,1.49789 -0.1512,0.27804 -0.3025,0.55608 -0.4583,0.84255 -0.3718,0.70562 -0.3718,0.70562 -0.3267,1.42567 0.297,0.0989 0.5939,0.19772 0.8999,0.29957 0.9381,0.38518 0.9381,0.38518 1.2444,1.06992 0.5806,0.15927 0.5806,0.15927 1.2444,0.21397 0.398,0.0425 0.796,0.0847 1.2061,0.12839 0,0.22598 0,0.45194 0,0.68475 0.1856,0.0623 0.3712,0.12446 0.5624,0.18857 0.5393,0.18084 1.0785,0.36184 1.6177,0.54298 0.582,0.1948 1.1643,0.38831 1.747,0.58044 0.2709,0.0896 0.5417,0.17918 0.8208,0.27149 0.2496,0.0821 0.4991,0.16417 0.7563,0.24875 0.6222,0.22201 0.6222,0.22201 1.2348,0.56439 2.912,1.56042 5.9139,2.86649 8.9174,4.18771 0.5784,0.26313 0.5784,0.26313 1.1911,0.60549 0,0.56493 0,1.12984 0,1.71187 -1.1511,0.34047 -1.8326,0.33918 -2.9459,-0.12437 -0.2618,-0.10615 -0.5236,-0.21228 -0.7933,-0.32165 -0.2697,-0.11408 -0.5394,-0.22817 -0.8173,-0.34571 -0.5351,-0.22041 -1.0703,-0.44019 -1.6058,-0.65934 -0.255,-0.10444 -0.5099,-0.20886 -0.7726,-0.31645 -1.8487,-0.735 -1.8487,-0.735 -3.7862,-0.97146 0,-0.33895 0,-0.6779 0,-1.02711 -0.2451,-0.074 -0.2451,-0.074 -0.4951,-0.14946 -1.6836,-0.53465 -3.3165,-1.17947 -4.9469,-1.88874 -0.3156,-0.13655 -0.3156,-0.13655 -0.6377,-0.27587 -0.8768,-0.37991 -1.7533,-0.76065 -2.6274,-1.14845 -0.6459,-0.28578 -1.2938,-0.56528 -1.9423,-0.8439 -0.1953,-0.0884 -0.3906,-0.17682 -0.5918,-0.26791 -1.2744,-0.54038 -2.1503,-0.64316 -3.4621,-0.21889 -0.726,0.58363 -1.3788,1.1641 -2.0485,1.81884 -2.738,2.56955 -5.7732,4.94895 -8.9789,6.74047 -0.2419,13.74531 1.1145,27.65226 1.9975,41.35726 0.058,0.90753 0.1167,1.81509 0.1749,2.72265 0.9275,14.46024 1.8854,28.91797 2.8465,43.37546 0.2318,3.48569 0.463,6.97141 0.6942,10.45714 1.0142,15.29282 1.0142,15.29282 2.0353,30.58509 0.053,0.79791 0.1069,1.59585 0.1604,2.39379 0.034,0.51529 0.069,1.03056 0.1035,1.54584 0.025,0.37449 0.025,0.37449 0.051,0.7565 0.1086,1.62075 0.2176,3.24144 0.3267,4.86211 0.5252,7.82331 1.0185,15.64937 1.4736,23.47821 0.1441,2.34232 0.6829,4.13266 1.8354,6.1175 0.178,0.30816 0.178,0.30816 0.3596,0.62256 0.121,0.20543 0.242,0.41089 0.3667,0.62255 0.1222,0.21208 0.2444,0.42412 0.3704,0.64262 0.4927,0.84672 0.9608,1.61557 1.6015,2.33173 0.2579,0.51521 0.5051,1.03715 0.7467,1.56209 1.2075,2.51258 2.6102,4.87256 4.0095,7.25468 0.7422,1.266 1.4773,2.53716 2.2126,3.80823 0.1413,0.24423 0.2827,0.48846 0.4283,0.74008 2.0749,3.58633 2.0749,3.58633 2.767,4.8377 0.3845,0.66966 0.7901,1.32459 1.2117,1.96577 2.0278,3.24227 2.0278,3.24227 1.7516,5.52547 -0.1552,0.76897 -0.3269,1.53393 -0.5109,2.29496 -0.094,0.44472 -0.1855,0.89002 -0.2755,1.3357 -0.1529,0.75591 -0.307,1.51122 -0.4665,2.26542 -0.7476,3.5505 -1.329,7.13838 -1.9357,10.72155 -0.3586,2.11163 -0.7239,4.22181 -1.089,6.33202 -0.073,0.423 -0.1463,0.84603 -0.2216,1.28187 -0.5058,2.92248 -1.0164,5.84388 -1.5302,8.76461 -0.1041,0.59219 -0.1041,0.59219 -0.2104,1.19634 -0.3284,1.86618 -0.6575,3.73218 -0.9876,5.59795 -0.5308,3.00481 -1.0567,6.01048 -1.5445,9.0244 -0.039,0.23312 -0.077,0.46623 -0.1169,0.70637 -0.1889,1.1913 -0.2969,2.32058 -0.2564,3.53049 -0.2022,0 -0.4044,0 -0.6127,0 -0.018,0.20655 -0.037,0.41311 -0.056,0.62589 -0.038,0.41048 -0.038,0.41048 -0.078,0.82918 -0.025,0.2701 -0.05,0.5402 -0.075,0.81849 -0.09,0.74741 -0.2257,1.45053 -0.4032,2.17729 0.5307,-0.0424 0.5307,-0.0424 1.0721,-0.0856 1.4987,0.004 2.6003,0.51512 3.829,1.45508 1.2907,1.4806 1.8697,2.84273 1.8762,4.9002 -0.013,0.41663 -0.025,0.83328 -0.038,1.26248 -1.3791,0.38858 -2.7271,0.38063 -4.1389,0.36377 -0.2479,0 -0.4959,-0.004 -0.7513,-0.004 -0.7886,-0.004 -1.5772,-0.0106 -2.3657,-0.0174 -1.0414,-0.009 -2.0828,-0.0158 -3.1242,-0.0212 -0.3599,-0.004 -0.3599,-0.004 -0.7271,-0.009 -1.225,-0.0382 -1.225,-0.0382 -2.3708,0.37236 -0.2022,-0.11299 -0.4043,-0.22596 -0.6126,-0.34238 -0.012,0.2026 -0.023,0.40518 -0.035,0.61389 -0.1213,1.62885 -0.2279,2.88071 -1.1906,4.17933 -1.3078,1.19594 -2.3148,1.53267 -3.9821,1.71187 -0.2022,0.11298 -0.4044,0.22597 -0.6127,0.34236 -0.5131,-0.0983 -1.0233,-0.21614 -1.5316,-0.34236 -0.3727,-0.0353 -0.7455,-0.0706 -1.1295,-0.10699 -1.0147,-0.23542 -1.0147,-0.23542 -1.3796,-0.77973 -0.3349,-1.11583 -0.3115,-2.13229 -0.3243,-3.30739 -0.066,-2.04923 -0.39,-3.38415 -1.6165,-4.94031 -0.7683,-0.76984 -1.0635,-0.79442 -2.1359,-0.79442 -1.0721,0 -1.0721,0 -1.6847,-0.34238 0.1011,0.6779 0.2021,1.35579 0.3063,2.05424 0.2211,0.0281 0.4422,0.0565 0.6701,0.0856 1.1302,0.3369 1.5888,0.65814 2.3931,1.62626 0.8149,1.76302 1.3627,3.10954 0.9488,5.08613 -0.1109,0.35526 -0.2219,0.71053 -0.3362,1.07658 -5.5341,0.596 -5.5341,0.596 -7.9068,-0.87734 -1.303,-1.62284 -1.6133,-3.49746 -1.589,-5.62773 -0.3386,0.012 -0.6771,0.0243 -1.0259,0.0368 -1.2552,0.0446 -2.5106,0.0868 -3.766,0.1282 -0.5434,0.0182 -1.0869,0.0373 -1.6303,0.0568 -0.7808,0.0281 -1.5617,0.0538 -2.3426,0.079 -0.2432,0.009 -0.4863,0.0184 -0.7369,0.0281 -1.007,0.0304 -1.7872,0.0301 -2.751,-0.32895 0.028,0.61434 0.028,0.61434 0.057,1.24112 0,1.42608 -0.263,2.34229 -0.9764,3.55209 -1.4834,1.49625 -2.3012,1.77014 -4.2885,1.79747 -0.3854,0.009 -0.7708,0.0178 -1.1678,0.0268 -0.3222,-0.037 -0.6444,-0.0741 -0.9764,-0.11234 -0.2022,-0.33895 -0.4044,-0.67791 -0.6126,-1.02713 -0.032,0.21893 -0.063,0.43783 -0.096,0.66337 -0.1043,0.34951 -0.1043,0.34951 -0.2106,0.70612 -0.3033,0.11301 -0.6065,0.22598 -0.919,0.34239 -0.1011,-0.11299 -0.2022,-0.22597 -0.3063,-0.34239 -0.7501,-0.0379 -1.4931,-0.0553 -2.2435,-0.0602 -0.4653,-0.008 -0.9306,-0.016 -1.3958,-0.0247 -0.7347,-0.0121 -1.4692,-0.0219 -2.204,-0.0267 -0.7084,-0.005 -1.4163,-0.019 -2.1246,-0.0342 -0.2173,0 -0.4347,0 -0.6586,0.004 -1.8078,-0.0492 -2.9023,-0.75891 -4.1623,-2.16721 -0.5595,-1.12577 -0.7517,-2.25185 -0.9955,-3.50933 -0.2022,0 -0.4043,0 -0.6126,0 0,-0.33896 0,-0.6779 0,-1.02712 -0.254,-0.0154 -0.508,-0.0309 -0.7696,-0.0465 -6.3224,-0.39241 -12.5781,-0.83297 -18.7353,-2.59999 -1.0027,-0.28712 -1.8097,-0.43481 -2.8563,-0.43481 0,-0.22597 0,-0.45193 0,-0.68475 -0.9098,-0.11299 -1.8195,-0.22595 -2.7569,-0.34239 0,-0.22594 0,-0.45191 0,-0.68472 -0.2357,-0.0636 -0.2357,-0.0636 -0.4762,-0.12841 -5.198,-1.56496 -10.8672,-4.53295 -14.9988,-8.43224 -0.4895,-0.43659 -0.4895,-0.43659 -1.3724,-0.34105 -0.1517,-0.50842 -0.1517,-0.50842 -0.3064,-1.02711 -0.5364,-0.54315 -0.5364,-0.54315 -1.2061,-1.06993 -1.3761,-1.15605 -2.6457,-2.40482 -3.9151,-3.70324 -0.5468,-0.55148 -1.0978,-1.07246 -1.6752,-1.58213 -1.1246,-1.0894 -2.0456,-2.30609 -3.0057,-3.57351 -0.246,-0.30937 -0.492,-0.61878 -0.7455,-0.93752 -2.5494,-3.23622 -5.1819,-6.83609 -6.9124,-10.70459 -0.3791,-0.22243 -0.3791,-0.22243 -0.7658,-0.44938 -0.7658,-0.57773 -0.7658,-0.57773 -0.9764,-1.39087 -0.032,-0.29659 -0.063,-0.59315 -0.096,-0.89872 -0.4201,-1.30782 -0.9658,-2.52996 -1.5316,-3.7661 -0.2022,0 -0.4043,0 -0.6126,0 -0.3064,-1.02714 -0.3064,-1.02714 -0.3064,-2.05425 -0.4469,-0.931 -0.862,-1.64829 -1.5316,-2.3966 0.2022,0 0.4044,0 0.6127,0 -0.5793,-0.67062 -0.5793,-0.67062 -1.1296,-1.15551 -0.1326,-0.18359 -0.2653,-0.36719 -0.402,-0.55635 0.075,-0.3157 0.075,-0.3157 0.1513,-0.63776 0.184,-0.86859 0.078,-1.22155 -0.2171,-2.0397 -0.1259,-0.35947 -0.1259,-0.35947 -0.2543,-0.72621 -0.09,-0.24671 -0.1804,-0.49342 -0.2734,-0.74758 -0.9381,-2.62712 -0.9381,-2.62712 -0.9381,-3.38093 -0.3032,0 -0.6065,0 -0.9189,0 0.058,-0.1918 0.1164,-0.38355 0.1764,-0.58114 0.158,-0.95922 0.014,-1.51762 -0.2423,-2.44674 -0.1258,-0.47067 -0.1258,-0.47067 -0.2542,-0.95089 -0.09,-0.32526 -0.1805,-0.65052 -0.2734,-0.98565 -0.1766,-0.64502 -0.3518,-1.29051 -0.5253,-1.93655 -0.1184,-0.42799 -0.1184,-0.42799 -0.2393,-0.86461 -0.1735,-0.79374 -0.1735,-0.79374 -0.1735,-2.16324 -0.2022,-0.11299 -0.4044,-0.22598 -0.6127,-0.34238 -0.1615,-0.82918 -0.1615,-0.82918 -0.2871,-1.96863 -0.05,-0.44091 -0.1003,-0.8818 -0.152,-1.33607 -0.027,-0.24179 -0.054,-0.48359 -0.082,-0.73271 -0.092,-0.76165 -0.1997,-1.51831 -0.3125,-2.27641 -1.6483,-11.3283 -1.7534,-23.05682 -0.3912,-34.42852 0.051,-0.45612 0.051,-0.45612 0.103,-0.92147 0.1085,-0.97022 0.222,-1.93957 0.3373,-2.90881 0.051,-0.4427 0.051,-0.4427 0.1022,-0.8943 0.2013,-1.60231 0.5139,-3.01472 1.0569,-4.51355 0.3449,-0.99895 0.5898,-2.02277 0.8481,-3.05309 0.937,-3.71618 2.1642,-7.18105 3.6788,-10.64775 0.1698,-0.38968 0.3396,-0.77937 0.5145,-1.18089 1.9036,-4.13827 4.2714,-8.04918 7.1327,-11.43337 0.5753,-0.6813 1.1056,-1.3849 1.6381,-2.10774 5.2227,-6.65602 12.6557,-10.38345 20.4275,-11.2983 4.3096,-0.29819 8.8961,0.41502 12.8654,2.39661 0.101,0.22596 0.2021,0.45194 0.3063,0.68474 0.2278,0.098 0.4557,0.19596 0.6904,0.29691 2.6207,1.20831 5.0176,4.3568 6.1443,7.23528 0.5,2.43877 0.6585,4.13679 -0.096,6.50508 -0.536,0.70616 -0.536,0.70616 -1.2253,1.02714 -1.3971,-0.14518 -2.4113,-0.60472 -3.6375,-1.34812 -1.4462,-0.84048 -2.7299,-1.39002 -4.3267,-1.73324 0,0.11297 0,0.22596 0,0.34237 -0.5054,0 -1.0109,0 -1.5316,0 -0.1011,-0.22598 -0.2022,-0.45193 -0.3063,-0.68475 -5.6176,-0.25367 -10.2761,0.83182 -14.7009,4.94703 -0.615,0.53093 -0.615,0.53093 -1.2683,0.85858 -0.728,0.45451 -0.8458,0.8894 -1.1846,1.72659 -0.309,0.40228 -0.6292,0.79399 -0.9573,1.17691 -7.6553,9.62147 -9.7705,24.45375 -10.0701,36.82644 -0.01,0.3523 -0.018,0.7046 -0.027,1.06757 -0.3526,16.67578 2.2777,32.97976 9.197,47.87032 0.1118,0.24304 0.2237,0.48608 0.339,0.73648 0.6253,1.36309 0.6253,1.36309 1.8243,2.0239 0.025,0.23876 0.05,0.47751 0.075,0.72352 1.9099,8.17375 11.4894,16.28592 17.6147,20.32467 3.6315,2.32958 7.3881,4.06904 11.4293,5.29308 0.2368,0.0725 0.4736,0.145 0.7177,0.21966 1.5292,0.43458 2.8932,0.55253 4.4705,0.48649 0.1011,0.22596 0.2022,0.45193 0.3063,0.68473 0.7126,0.16094 0.7126,0.16094 1.5711,0.21666 0.3169,0.0288 0.6338,0.0574 0.9602,0.0869 0.3335,0.027 0.667,0.0539 1.0105,0.0816 0.3347,0.0295 0.6693,0.0591 1.0141,0.0896 0.8296,0.0729 1.6595,0.14182 2.4894,0.20999 -0.6065,-3.22003 -0.6065,-3.22003 -1.2252,-6.50509 -0.2022,0 -0.4044,0 -0.6127,0 0.013,-0.40954 0.025,-0.81913 0.038,-1.24109 0,-1.32163 -0.2556,-2.30034 -0.6509,-3.55211 -0.1739,-0.9576 -0.3242,-1.91743 -0.4702,-2.88076 -0.1773,-1.14069 -0.1773,-1.14069 -0.4488,-2.25485 -0.2021,-0.11298 -0.4043,-0.22597 -0.6126,-0.34238 0.063,-0.17652 0.1264,-0.35305 0.1915,-0.53494 0.1673,-1.2157 -0.1137,-2.09347 -0.4978,-3.23116 -0.3033,-0.11296 -0.6065,-0.22596 -0.919,-0.34237 0.3033,-0.11297 0.6066,-0.22597 0.919,-0.34236 -0.088,-0.26126 -0.1769,-0.52256 -0.268,-0.79173 -0.358,-1.31159 -0.5733,-2.59489 -0.7814,-3.94398 -0.3194,-1.96965 -0.7118,-3.92262 -1.0948,-5.87785 -0.2022,0 -0.4044,0 -0.6127,0 -0.3446,-2.311 -0.3446,-2.311 0,-3.08135 -0.076,-0.6758 -0.076,-0.6758 -0.2512,-1.44312 -0.062,-0.29847 -0.1247,-0.59694 -0.1889,-0.90441 -0.07,-0.32381 -0.1391,-0.64761 -0.2108,-0.98125 -0.1421,-0.68581 -0.2841,-1.37167 -0.426,-2.05755 -0.2261,-1.08153 -0.4537,-2.16263 -0.6838,-3.24311 -0.2211,-1.04244 -0.4366,-2.0862 -0.6515,-3.13025 -0.07,-0.31894 -0.1391,-0.6379 -0.2108,-0.96652 -0.3926,-1.92767 -0.6703,-3.83228 -0.1338,-5.7619 0.4512,-0.55497 0.4512,-0.55497 0.9189,-1.02711 0.271,-0.50499 0.5244,-1.02199 0.7646,-1.54603 0.1438,-0.31112 0.2876,-0.62225 0.4358,-0.94277 0.1535,-0.33678 0.3071,-0.67355 0.4652,-1.02052 0.3334,-0.72267 0.6669,-1.44528 1.0003,-2.1679 0.1692,-0.36839 0.3385,-0.73673 0.5128,-1.11624 0.7411,-1.61168 1.4897,-3.21903 2.2393,-4.82581 0.145,-0.31188 0.2901,-0.62373 0.4395,-0.94506 0.9447,-2.02652 1.9045,-4.04348 2.8726,-6.05621 0.2398,-0.49997 0.4797,-0.99995 0.7195,-1.49995 0.3558,-0.74195 0.7123,-1.48343 1.0711,-2.22359 0.3346,-0.69031 0.6668,-1.38203 0.9985,-2.07405 0.151,-0.3087 0.151,-0.3087 0.3051,-0.62364 1.0574,-2.21877 1.1288,-4.33188 1.272,-6.79488 0.02,-0.33415 0.04,-0.6683 0.061,-1.01259 0.042,-0.7082 0.083,-1.41642 0.1243,-2.12468 0.062,-1.06548 0.1266,-2.13071 0.1915,-3.19597 0.2084,-3.51663 0.3588,-7.00284 0.2973,-10.52753 0.014,-0.94661 0.014,-0.94661 0.3207,-1.28899 0.055,-0.47077 0.091,-0.94442 0.1192,-1.41823 0.018,-0.30223 0.037,-0.60447 0.056,-0.91588 0.018,-0.33089 0.037,-0.66177 0.056,-1.00267 0.02,-0.34208 0.04,-0.68413 0.061,-1.03658 0.042,-0.72961 0.084,-1.45925 0.1243,-2.18896 0.062,-1.09493 0.1263,-2.18956 0.1915,-3.28423 0.2034,-3.52177 0.3663,-7.02404 0.3073,-10.55415 -0.015,-1.06514 0.01,-1.85995 0.3107,-2.88064 0.057,-0.63124 0.099,-1.26419 0.1327,-1.8975 0.022,-0.39331 0.043,-0.78659 0.065,-1.19182 0.022,-0.43032 0.045,-0.86064 0.068,-1.30399 0.024,-0.4504 0.049,-0.9008 0.074,-1.36482 0.066,-1.22776 0.1307,-2.45561 0.1949,-3.68349 0.054,-1.02032 0.1081,-2.04057 0.1627,-3.06081 0.4059,-7.59618 0.7911,-15.19366 1.1559,-22.79244 0.3249,-6.72701 0.3249,-6.72701 0.5978,-9.89829 -0.2022,0 -0.4044,0 -0.6127,0 0.3064,-1.02712 0.3064,-1.02712 0.6127,-1.3695 0.059,-0.60736 0.097,-1.21718 0.1278,-1.82712 0.021,-0.39646 0.041,-0.79293 0.062,-1.2014 0.032,-0.65837 0.032,-0.65837 0.065,-1.33004 0.024,-0.46379 0.047,-0.92758 0.071,-1.39136 0.065,-1.2641 0.1274,-2.52831 0.1899,-3.79253 0.066,-1.32547 0.1329,-2.65084 0.2,-3.97625 0.084,-1.65898 0.1675,-3.31796 0.2505,-4.977 0.1838,-3.6678 0.3737,-7.33516 0.5682,-11.00228 0.086,-1.62351 0.1711,-3.2471 0.2562,-4.87067 0.068,-1.2953 0.1364,-2.59055 0.206,-3.88574 0.3941,-7.11015 0.3941,-7.11015 0.4427,-14.23125 0.011,-0.92447 0.011,-0.92447 0.3174,-1.26684 0.048,-0.55895 0.077,-1.12003 0.097,-1.68111 0.013,-0.33872 0.026,-0.67746 0.039,-1.02645 0.018,-0.53457 0.018,-0.53457 0.036,-1.07995 0.013,-0.3577 0.026,-0.7154 0.04,-1.08395 0.033,-0.88686 0.064,-1.77377 0.094,-2.66074 -0.2022,-0.11298 -0.4044,-0.22597 -0.6127,-0.34238 0.2022,-0.22596 0.4044,-0.45193 0.6127,-0.68473 0.4421,-3.25854 0.3434,-6.64106 0.3063,-9.92881 -0.6433,-0.4021 -1.2879,-0.80103 -1.9336,-1.1983 -0.2734,-0.17147 -0.2734,-0.17147 -0.5523,-0.34639 -0.8708,-0.53291 -1.4064,-0.85192 -2.4152,-0.85192 0,-0.33895 0,-0.6779 0,-1.02712 -0.1686,-0.09 -0.3372,-0.18007 -0.5109,-0.27282 -2.0923,-1.20652 -4.0705,-2.6193 -5.698,-4.53109 -0.8275,-0.5178 -1.4595,-0.20475 -2.368,0.0107 -0.5653,0.2112 -1.1251,0.44192 -1.6787,0.68875 -0.4895,0.21661 -0.4895,0.21661 -0.9888,0.43758 -0.3517,0.15792 -0.7034,0.31583 -1.0657,0.47854 -0.5528,0.24449 -0.5528,0.24449 -1.1166,0.49391 -1.9618,0.8686 -3.9176,1.75248 -5.8696,2.64802 -0.9683,0.44378 -1.9377,0.88465 -2.9071,1.32543 -0.703,0.32131 -1.4042,0.64729 -2.1054,0.9734 -0.4376,0.19943 -0.8752,0.39863 -1.313,0.59757 -0.2943,0.13936 -0.2943,0.13936 -0.5946,0.28152 -1.3102,0.58776 -2.3979,0.72097 -3.8027,0.63459 -0.3063,-1.02712 -0.3063,-1.02712 0,-2.05423 0.6481,-0.39712 0.6481,-0.39712 1.516,-0.77971 0.3252,-0.14564 0.6504,-0.29127 0.9855,-0.44133 0.3559,-0.15491 0.7119,-0.30982 1.0786,-0.46943 0.5593,-0.24862 1.1186,-0.49724 1.6779,-0.74602 0.5938,-0.26343 1.1882,-0.52508 1.7826,-0.78646 1.2452,-0.54841 2.4864,-1.10731 3.7272,-1.6679 0.6145,-0.27712 1.2291,-0.55411 1.8437,-0.83103 0.3949,-0.17793 0.7897,-0.35599 1.1845,-0.53419 2.1223,-0.9566 4.24,-1.86977 6.4209,-2.64562 -0.5909,-1.42004 -1.2681,-2.5505 -2.1442,-3.76609 0,-0.22598 0,-0.45194 0,-0.68475 -1.8542,-0.046 -3.6696,0.13364 -5.5137,0.34237 0,0.33895 0,0.6779 0,1.02712 -0.2541,-0.0651 -0.5082,-0.13014 -0.7701,-0.19719 -1.2169,-0.16547 -2.2617,0.009 -3.4501,0.27075 -0.2235,0.046 -0.447,0.0922 -0.6773,0.13963 -0.7101,0.14678 -1.4194,0.29808 -2.1287,0.45015 -0.7082,0.15039 -1.4165,0.2997 -2.1254,0.44649 -0.4395,0.0912 -0.8787,0.18437 -1.3174,0.28005 -1.3259,0.27663 -2.5806,0.36418 -3.9279,0.32198 -0.1011,0.22596 -0.2022,0.45194 -0.3063,0.68474 -0.6065,-0.11298 -1.2131,-0.22596 -1.8379,-0.34237 -0.1011,0.22597 -0.2022,0.45193 -0.3064,0.68474 -0.5054,-0.11297 -1.0108,-0.22596 -1.5315,-0.34237 -0.1011,0.22597 -0.2022,0.45194 -0.3064,0.68475 -0.8998,-0.25678 -0.8998,-0.25678 -1.8379,-0.68475 -0.268,-0.72754 -0.268,-0.72754 -0.3063,-1.36949 1.1577,-1.2657 2.4853,-1.34493 4.0204,-1.58347 0.4987,-0.082 0.9973,-0.16487 1.4957,-0.24876 0.22,-0.0347 0.44,-0.0694 0.6666,-0.10514 0.5841,-0.0933 0.5841,-0.0933 1.1689,-0.45923 0.5067,-0.0657 1.0151,-0.11589 1.5238,-0.15773 1.6955,-0.15864 3.3574,-0.42629 5.0345,-0.74234 0.2862,-0.0527 0.5723,-0.10542 0.8671,-0.15973 0.901,-0.16615 1.8016,-0.33411 2.7023,-0.50228 0.9105,-0.16911 1.821,-0.33783 2.7317,-0.50594 0.5636,-0.10414 1.1272,-0.20891 1.6906,-0.31435 0.2527,-0.0469 0.5055,-0.0937 0.766,-0.14205 0.2225,-0.0416 0.4449,-0.0831 0.6741,-0.12588 0.5511,-0.0887 0.5511,-0.0887 1.1637,-0.0887 -0.2909,-0.51541 -0.5851,-1.02856 -0.8807,-1.54068 -0.1634,-0.28599 -0.3269,-0.57198 -0.4953,-0.86663 -0.1524,-0.22244 -0.3049,-0.44487 -0.4619,-0.67405 -0.2022,0 -0.4043,0 -0.6126,0 -0.1011,-0.45193 -0.2022,-0.90386 -0.3063,-1.36948 -0.2022,0 -0.4044,0 -0.6127,0 0,-0.33896 0,-0.67791 0,-1.02712 -0.5135,0.0105 -0.5135,0.0105 -1.0374,0.0214 -1.487,0 -2.9432,-0.1732 -4.4189,-0.36377 -0.5124,-0.0646 -1.025,-0.12888 -1.5375,-0.19259 -0.2234,-0.0287 -0.4469,-0.0573 -0.6771,-0.0869 -0.6518,-0.0788 -0.6518,-0.0788 -1.5186,-0.0629 0,-0.22597 0,-0.45194 0,-0.68475 -0.3512,-0.0251 -0.3512,-0.0251 -0.7096,-0.0508 -2.256,-0.1758 -4.4804,-0.46393 -6.7198,-0.81295 -1.7053,-0.24248 -3.4145,-0.38268 -5.1296,-0.50553 -0.1516,-0.84736 -0.1516,-0.84736 -0.3063,-1.71186 1.2824,-1.35085 1.2824,-1.35085 2.3737,-1.4325 0.3049,0.0506 0.6097,0.10133 0.9238,0.15353 0.5215,0.0808 0.5215,0.0808 1.0535,0.16314 0.373,0.0659 0.7461,0.13181 1.1304,0.19972 0.3864,0.0619 0.7727,0.12383 1.1708,0.18763 1.0267,0.16595 2.0522,0.33862 3.0775,0.51469 1.0367,0.17641 2.0745,0.34429 3.1123,0.51269 1.5243,0.24836 3.048,0.50121 4.5712,0.75856 1.4431,0.24237 2.8862,0.46237 4.3353,0.6544 -0.066,-0.1858 -0.1326,-0.37161 -0.201,-0.56304 -0.1279,-0.36741 -0.1279,-0.36741 -0.2584,-0.74225 -0.128,-0.36345 -0.128,-0.36345 -0.2585,-0.73424 -0.201,-0.69945 -0.201,-0.69945 -0.201,-1.72657 -0.2022,-0.11298 -0.4044,-0.22597 -0.6127,-0.34237 -1.183,-4.29539 -0.9659,-9.17229 -0.8232,-13.60931 0.011,-0.35224 0.021,-0.70449 0.032,-1.06741 0.096,-2.45264 0.3847,-4.82332 0.7912,-7.23512 -0.2022,-0.11299 -0.4044,-0.22597 -0.6127,-0.34238 0.2022,-0.11298 0.4044,-0.22596 0.6127,-0.34237 0.1482,-0.69156 0.1482,-0.69156 0.2052,-1.53658 0.03,-0.32678 0.059,-0.65356 0.09,-0.99026 0.044,-0.53332 0.044,-0.53332 0.089,-1.07744 0.032,-0.36265 0.065,-0.72531 0.098,-1.09896 0.1036,-1.16382 0.2034,-2.32801 0.3027,-3.49231 0.101,-1.16299 0.2028,-2.32588 0.3059,-3.48863 0.064,-0.72495 0.1269,-1.45005 0.1882,-2.1753 0.029,-0.32786 0.057,-0.65572 0.087,-0.99352 0.037,-0.4341 0.037,-0.4341 0.075,-0.87695 0.091,-0.70394 0.091,-0.70394 0.3972,-1.38868 -0.2022,-0.11298 -0.4043,-0.22597 -0.6126,-0.34237 0.2021,0 0.4043,0 0.6126,0 0.012,-0.30273 0.024,-0.60547 0.036,-0.91737 0.2086,-4.5703 0.6156,-9.11513 1.0281,-13.66732 0.1218,-1.34579 0.2415,-2.69179 0.3609,-4.03784 0.079,-0.88293 0.1585,-1.76583 0.2382,-2.6487 0.039,-0.42928 0.077,-0.85856 0.1172,-1.30084 0.1922,-2.08709 0.402,-4.16881 0.65,-6.24858 0.045,-0.38214 0.091,-0.76429 0.1377,-1.15801 0.087,-0.71702 0.1772,-1.43359 0.2708,-2.14958 0.038,-0.31462 0.077,-0.62926 0.1167,-0.95343 0.036,-0.27433 0.071,-0.54866 0.1079,-0.83131 0.07,-0.74948 0.07,-0.74948 -0.613,-1.35139 z m 60.6508,58.54571 c -0.6082,0.67981 -0.4864,1.9735 -0.5743,2.91017 -0.2597,2.5347 -0.5807,4.8467 -1.8762,7.01863 -0.8041,0.23538 -0.8041,0.23538 -1.5316,0.34237 -1.4101,-3.06377 -1.805,-6.201 -2.1442,-9.58643 -3.0244,0.45836 -5.3156,2.66531 -7.3516,5.13559 -0.3972,0.90627 -0.3972,0.90627 -0.6127,1.71186 2.855,2.87196 6.5853,4.17476 10.3981,4.07772 3.7811,-0.44824 6.6339,-1.95336 9.2062,-5.10484 1.1543,-1.72582 2.1714,-3.31296 2.4506,-5.47796 -1.7977,-0.56389 -3.479,-0.82636 -5.3414,-0.92012 -0.2494,-0.0161 -0.4987,-0.0322 -0.7557,-0.0488 -0.6218,-0.0353 -1.2446,-0.0488 -1.8672,-0.0582 z m -49.1831,0.29957 c -0.2391,0.0269 -0.4782,0.0539 -0.7245,0.0816 -1.3786,0.1259 -1.3786,0.1259 -2.4727,0.98833 1.6032,3.86959 3.0818,6.43226 6.4327,8.55931 0.2191,0.14256 0.4383,0.2851 0.6641,0.43198 2.7923,1.53097 6.5826,1.4351 9.5592,0.57375 1.7986,-0.73674 4.4229,-1.82183 5.442,-3.70592 -0.1002,-1.68315 -1.8541,-2.96694 -2.9386,-4.04629 -1.5325,-1.43343 -3.0862,-2.48759 -5.0688,-2.83995 -0.03,0.32704 -0.06,0.65407 -0.091,0.991 -0.3162,3.05649 -0.8082,5.81213 -2.0532,8.59543 -0.6066,0 -1.2131,0 -1.838,0 -1.2037,-3.20916 -1.6787,-6.46886 -1.8379,-9.9288 -0.3032,0.11298 -0.6065,0.22597 -0.9189,0.34237 0.2022,0.45193 0.4043,0.90386 0.6126,1.36949 -0.7581,-0.16947 -0.7581,-0.16947 -1.5316,-0.34237 0.1011,-0.45193 0.2022,-0.90386 0.3064,-1.36949 -1.1912,0 -2.3597,0.15265 -3.5418,0.29957 z m 22.5335,17.84617 c -0.1011,0.22597 -0.2022,0.45194 -0.3063,0.68475 0.2326,0.35086 0.4651,0.70173 0.7048,1.06323 0.3075,0.46583 0.615,0.93169 0.9225,1.39757 0.153,0.2306 0.306,0.4612 0.4637,0.69879 0.6477,0.98287 1.2605,1.94129 1.8085,2.9991 0.1284,0.22729 0.2567,0.45458 0.3889,0.68876 0.2022,0 0.4044,0 0.6127,0 0.4626,-0.61178 0.4626,-0.61178 0.9189,-1.36949 0.3125,-0.47097 0.6252,-0.94174 0.9381,-1.41229 0.1552,-0.23391 0.3104,-0.46782 0.4703,-0.70881 0.4295,-0.61788 0.4295,-0.61788 1.0422,-1.30263 -0.098,-0.89113 -0.098,-0.89113 -0.3064,-1.71186 0.1011,0.11298 0.2022,0.22597 0.3064,0.34238 0.3032,0 0.6065,0 0.9189,0 0.2022,-0.33895 0.4044,-0.67791 0.6126,-1.02713 -0.3377,-0.45497 -0.3377,-0.45497 -1.1846,-0.38124 -0.3834,0.002 -0.7668,0.004 -1.1618,0.005 -0.2035,2e-4 -0.4071,8.8e-4 -0.6168,8.8e-4 -0.6523,0.002 -1.3046,0.006 -1.957,0.0105 -0.4413,0.002 -0.8826,0.004 -1.324,0.005 -1.0839,0.004 -2.1677,0.01 -3.2516,0.0168 z m -34.6139,4.45084 c 1.049,0.69775 1.9689,0.83442 3.1781,0.94153 0.3372,0.0336 0.6744,0.0671 1.0218,0.10164 1.0698,-0.017 1.8547,-0.26588 2.8454,-0.70079 0,-0.11299 0,-0.22597 0,-0.34238 -1.0588,-0.1344 -2.1183,-0.26056 -3.178,-0.38516 -0.4525,-0.0576 -0.4525,-0.0576 -0.9142,-0.11635 -0.2882,-0.0331 -0.5765,-0.0662 -0.8735,-0.10031 -0.3994,-0.0484 -0.3994,-0.0484 -0.8069,-0.0978 -0.7266,-0.0688 -0.7266,-0.0688 -1.2727,0.69962 z m 77.8047,-0.68474 c 0.3063,0.68474 0.3063,0.68474 0.3063,0.68474 z m -2.7569,0.34237 c -0.6182,0.0548 -1.2376,0.095 -1.857,0.12839 -2.3246,0.16032 -4.6349,0.41891 -6.9496,0.70615 -0.3538,0.0418 -0.7077,0.0838 -1.0722,0.12688 -0.4999,0.0637 -0.4999,0.0637 -1.0098,0.12855 -0.2996,0.0373 -0.5992,0.0745 -0.9079,0.11294 -0.8354,0.12577 -0.8354,0.12577 -1.6815,0.85133 0,0.22597 0,0.45193 0,0.68474 2.4062,-0.13625 4.7355,-0.28555 7.0896,-0.88937 0.5684,-0.13775 0.5684,-0.13775 1.181,-0.13775 0.5683,-0.0454 1.1362,-0.096 1.7039,-0.14979 0.3037,-0.0278 0.6073,-0.0556 0.9202,-0.0843 0.7284,-0.0197 0.7284,-0.0197 1.0517,-0.45071 0.6687,-0.0804 1.3393,-0.14161 2.0103,-0.19257 0.3668,-0.0287 0.7336,-0.0574 1.1115,-0.0869 0.2839,-0.0207 0.5678,-0.0415 0.8604,-0.0629 -0.1517,-0.50843 -0.1517,-0.50843 -0.3064,-1.02712 -1.1929,-0.0722 -1.1929,-0.0722 -2.1442,0.34237 z m -68.6151,1.19831 c -0.1011,0.16947 -0.2022,0.33894 -0.3063,0.51355 0.3411,0 0.6823,0 1.0338,0 0.5743,0 1.1487,0 1.723,0 0,0.11299 0,0.22597 0,0.34238 3.1842,0.33894 3.1842,0.33894 6.4327,0.68474 0,-0.22596 0,-0.45192 0,-0.68474 0.3033,-0.11299 0.6065,-0.22596 0.919,-0.34238 -1.0718,-0.1743 -2.144,-0.34429 -3.2164,-0.51355 -0.3009,-0.0489 -0.6017,-0.098 -0.9118,-0.14845 -2.9582,-0.65951 -2.9582,-0.65951 -5.674,0.14845 z m -7.3516,0.85593 c 0.3063,0.68474 0.3063,0.68474 0.3063,0.68474 z m 0.3063,0.68474 c 0.3063,0.68475 0.3063,0.68475 0.3063,0.68475 z m 13.1573,3.7982 c -0.2363,0.038 -0.4725,0.0759 -0.7159,0.11515 -0.7522,0.1212 -1.5043,0.24373 -2.2564,0.36631 -0.5109,0.0825 -1.0218,0.16504 -1.5327,0.24742 -1.2506,0.20183 -2.5009,0.40485 -3.7512,0.60851 0,0.22597 0,0.45193 0,0.68474 1.4878,0.83152 3.4013,0.27014 4.9764,-0.0321 0.201,-0.038 0.4019,-0.076 0.6089,-0.11514 0.6338,-0.12027 1.267,-0.24324 1.9003,-0.36633 0.4329,-0.0826 0.8659,-0.16513 1.2989,-0.24742 1.0542,-0.20078 2.1081,-0.40399 3.1619,-0.60853 0,-0.33894 0,-0.67789 0,-1.02711 -1.2578,0 -2.4502,0.17098 -3.6902,0.37447 z m 49.0251,0.31028 c 0.3096,0.0424 0.6192,0.0847 0.9382,0.12838 1.2061,0.21399 1.2061,0.21399 2.1693,0.53496 1.3685,0.42151 2.7278,0.68028 4.1293,0.92013 0.2551,0.0459 0.5102,0.0918 0.773,0.13909 1.2206,0.21289 2.3905,0.39389 3.6303,0.33167 0,-0.33896 0,-0.6779 0,-1.02712 -2.2703,-0.61679 -4.5346,-0.97909 -6.8538,-1.2839 -0.5396,-0.0774 -0.5396,-0.0774 -1.0901,-0.15647 -0.3439,-0.0455 -0.6879,-0.0909 -1.0422,-0.13775 -0.3113,-0.0423 -0.6226,-0.0846 -0.9433,-0.12806 -0.866,-0.0888 -0.866,-0.0888 -1.7107,0.67907 z m 0.3064,3.42372 c 0.3063,0.68475 0.3063,0.68475 0.3063,0.68475 z m -45.6413,0.34237 c -0.1011,0.22597 -0.2022,0.45193 -0.3064,0.68475 0.2022,0 0.4044,0 0.6127,0 -0.1011,-0.22597 -0.2022,-0.45193 -0.3063,-0.68475 z m 46.5602,0 c 0.1011,0.33896 0.2022,0.6779 0.3063,1.02712 0.6103,0.3514 0.6103,0.3514 1.3402,0.57776 0.2424,0.086 0.4849,0.17211 0.7347,0.26079 0.7136,0.22967 0.7136,0.22967 1.6009,0.18856 0,-0.33894 0,-0.67789 0,-1.02711 -0.1848,-0.0455 -0.3696,-0.0909 -0.5599,-0.13775 -0.3673,-0.0907 -0.3673,-0.0907 -0.7419,-0.18322 -0.2417,-0.0596 -0.4833,-0.11916 -0.7323,-0.18056 -0.6519,-0.16526 -1.3002,-0.34126 -1.948,-0.52559 z m -49.6426,0.62055 c -0.3554,0.12402 -0.7107,0.24804 -1.0769,0.37581 -1.2727,0.45307 -2.54,0.92095 -3.805,1.40026 0,0.33894 0,0.67788 0,1.02711 1.925,-0.34792 3.6525,-0.88093 5.4443,-1.7453 0.6329,-0.28666 1.2417,-0.48654 1.9073,-0.65131 0,-0.33895 0,-0.67789 0,-1.02712 -0.8841,0 -1.6266,0.32627 -2.4697,0.62055 z m 53.9311,0.74894 c -0.1011,0.33895 -0.2022,0.6779 -0.3064,1.02713 1.5163,0.33894 1.5163,0.33894 3.0632,0.68474 0,-0.33895 0,-0.6779 0,-1.02713 -1.3646,-0.33894 -1.3646,-0.33894 -2.7568,-0.68474 z m -37.6771,176.66423 c -0.4156,0.92906 -0.3386,1.64459 -0.3315,2.68514 0,0.42762 0,0.85524 0.01,1.29582 0,0.47788 0.01,0.95579 0.012,1.43365 0,0.50292 0.01,1.00583 0.01,1.50874 0.01,1.09162 0.014,2.1832 0.022,3.27478 0.013,1.75554 0.024,3.51109 0.035,5.26664 0.015,2.51171 0.032,5.02343 0.049,7.53511 0.042,6.18299 0.078,12.36598 0.1139,18.54901 0.01,0.97709 0.011,1.95416 0.017,2.93123 0.066,11.46479 0.096,22.92896 0.087,34.39397 -3e-4,0.37716 -5e-4,0.75437 -7e-4,1.14294 0,4.36948 -0.01,8.73888 -0.018,13.10833 1.112,0.22595 2.2239,0.45192 3.3695,0.68473 0.051,-0.60019 0.1011,-1.20041 0.1532,-1.81883 0.028,-0.33763 0.057,-0.67529 0.086,-1.02313 0.079,-0.94022 0.079,-0.94022 0.067,-1.95124 0.01,-0.2754 0.013,-0.55078 0.019,-0.83454 0.011,-0.84983 0.011,-0.84983 -0.1723,-1.54069 -0.2567,-1.18323 -0.3396,-2.34366 0.1531,-3.44511 0,-0.33895 0,-0.67789 0,-1.02712 -0.2021,-0.11296 -0.4043,-0.22597 -0.6126,-0.34238 0,-0.22596 0,-0.45193 0,-0.68473 0.2022,0 0.4043,0 0.6126,0 0,-0.56491 0,-1.12983 0,-1.71187 -0.2021,0 -0.4043,0 -0.6126,0 0.05,-0.33189 0.1011,-0.66378 0.1532,-1.00572 0.1599,-1.2337 0.1595,-2.42702 0.1423,-3.67115 0.014,-1.07501 0.1398,-2.12037 0.28,-3.18298 0.041,-0.77113 -0.1003,-1.32234 -0.2692,-2.06894 -0.028,-0.69131 -0.04,-1.38362 -0.038,-2.07563 -8e-4,-0.53559 -8e-4,-0.53559 0,-1.08195 0.041,-0.95089 0.041,-0.95089 0.3471,-1.97801 0.093,-1.29898 0.093,-1.29898 -0.3255,-2.07564 -0.2872,-0.66334 -0.2872,-0.66334 0.019,-1.69048 -0.1193,-0.73356 -0.1193,-0.73356 -0.3063,-1.36948 0.2022,-0.11298 0.4043,-0.22597 0.6126,-0.34238 -0.057,-0.24713 -0.1137,-0.49429 -0.1723,-0.74892 -0.134,-0.96293 -0.134,-0.96293 0.018,-1.67175 0.2236,-1.45276 0.1186,-2.85344 0.04,-4.31977 -0.014,-0.29681 -0.027,-0.59361 -0.041,-0.89941 -0.038,-1.53879 -0.038,-1.53879 -0.4571,-2.97369 0.2022,0 0.4044,0 0.6127,0 -0.022,-0.26082 -0.044,-0.52168 -0.067,-0.7904 -0.4562,-5.67225 -0.4562,-5.67225 0.067,-7.42655 0.028,-0.51993 0.04,-1.04114 0.041,-1.56206 2e-4,-0.30099 6e-4,-0.60197 8e-4,-0.9121 -8e-4,-0.31336 0,-0.62672 0,-0.94956 9e-4,-0.31333 0,-0.6267 0,-0.94954 -2e-4,-0.30101 -6e-4,-0.60199 -8e-4,-0.91211 -3e-4,-0.27494 -4e-4,-0.5499 -7e-4,-0.8332 -0.015,-0.79353 -0.015,-0.79353 -0.3459,-1.75598 0.099,-0.57122 0.202,-1.14175 0.3063,-1.71188 0.012,-0.79875 0.014,-1.59789 0,-2.3966 -0.2022,0 -0.4043,0 -0.6126,0 0.043,-0.6064 0.088,-1.21268 0.134,-1.81887 0.025,-0.3376 0.05,-0.67525 0.075,-1.02308 0.097,-0.92416 0.097,-0.92416 0.4031,-1.95127 -0.096,-0.7998 -0.1992,-1.59856 -0.3063,-2.39661 -0.028,-0.89117 -0.04,-1.78306 -0.038,-2.67479 -6e-4,-0.44705 0,-0.89415 0,-1.35477 0.016,-1.04227 0.092,-2.06153 0.195,-3.0974 0.1793,-1.86486 0.1864,-3.70977 0.1711,-5.58361 0,-0.32747 0,-0.65496 0,-0.99235 0,-0.79622 -0.01,-1.59237 -0.015,-2.38858 -0.2021,0 -0.4043,0 -0.6126,0 0.1003,-0.19243 0.2006,-0.38485 0.3039,-0.5831 0.3448,-0.87837 0.3721,-1.46033 0.347,-2.41267 -0.01,-0.41043 -0.01,-0.41043 -0.017,-0.82918 -0.01,-0.20653 -0.014,-0.41309 -0.021,-0.6259 -0.8828,-0.32893 -1.4392,-0.3786 -2.3548,-0.36376 -0.2476,0.003 -0.4952,0.006 -0.7502,0.009 -0.1883,0.004 -0.3767,0.008 -0.5707,0.0121 z m 19.9106,0.68477 c -0.3032,-0.113 -0.6065,-0.22597 -0.9189,-0.34238 0,30.95732 0,61.91465 0,93.81008 2.5735,0.005 2.5735,0.005 3.3695,-1.02711 0.092,-0.70923 0.092,-0.70923 0.075,-1.53863 8e-4,-0.32577 0,-0.65153 0,-0.98713 0,-0.36037 0,-0.72073 -0.01,-1.09198 8e-4,-0.38087 8e-4,-0.76174 0,-1.15415 8e-4,-1.28486 0,-2.56963 -0.01,-3.85447 0,-0.91758 0,-1.83515 0,-2.75273 0,-1.97991 0,-3.95982 0,-5.93975 -0.01,-2.86265 -0.01,-5.72528 -0.01,-8.58793 -9e-4,-4.64412 -0.01,-9.28821 -0.011,-13.93232 -0.01,-4.51214 -0.01,-9.02431 -0.013,-13.53642 0,-0.27798 0,-0.55597 -9e-4,-0.84239 -8e-4,-1.39452 0,-2.78905 0,-4.18357 -0.01,-11.57464 -0.017,-23.14925 -0.031,-34.72389 -1.3763,-0.14549 -1.3763,-0.14549 -2.4505,0.68477 z m -16.5411,3.08136 c 0.3063,0.68473 0.3063,0.68473 0.3063,0.68473 z m -87.9131,45.53554 c 0.3063,0.68474 0.3063,0.68474 0.3063,0.68474 z m 87.9131,10.27118 c 0.3063,1.0271 0.3063,1.0271 0.3063,1.0271 z m -83.0121,0.68474 c 0.3064,0.68474 0.3064,0.68474 0.3064,0.68474 z m 74.1289,35.94912 c -0.9294,1.2785 -1.2253,1.75874 -1.2253,3.42372 1.6679,-0.16946 1.6679,-0.16946 3.3695,-0.34238 0.3264,1.09438 0.3291,1.93697 0.3063,3.08135 0.6718,-0.60803 0.6718,-0.60803 0.6822,-1.39104 0,-0.42494 0,-0.42494 -0.01,-0.85843 0,-0.30672 0,-0.61347 -0.01,-0.9295 -0.01,-0.32086 -0.01,-0.64172 -0.016,-0.97228 0,-0.3235 -0.01,-0.64702 -0.01,-0.98031 -0.01,-0.80031 -0.017,-1.60043 -0.03,-2.40062 -1.2439,0 -2.0874,0.56141 -3.0632,1.36949 z m 2.7568,6.16269 c -0.101,0.33896 -0.2021,0.67792 -0.3063,1.02714 0.2022,0 0.4044,0 0.6127,0 -0.1011,-0.33895 -0.2022,-0.67791 -0.3064,-1.02714 z"
       fill="#111111"
       id="path1-1"
       style="stroke-width:0.323845" />
    <path
       style="fill:#c9b26b;fill-opacity:1;stroke:#e2b544;stroke-width:0.637575;stroke-dasharray:none;stroke-opacity:1"
       d="m 741.69334,225.02495 c -0.569,-15.52632 -1.4455,-31.04814 -2.9296,-46.5326 -4.3062,-4.59564 -7.5835,4.66406 -11.4576,6.15393 -1.1577,2.25966 -6.757,5.99563 -2.9214,1.42246 2.6216,-3.93348 11.8202,-9.28635 7.6633,-13.71471 -5.5842,-1.27255 -11.4516,-2.43119 -17.2755,-2.51976 -3.1704,0.14375 -6.2495,-2.54353 -1.116,-2.07462 6.2842,-1.03577 12.8565,-1.03477 18.798,-3.02723 4.7294,-3.74721 -4.5208,-7.63573 -5.6529,-11.43824 -1.6244,-2.01229 -3.7759,-5.98989 -1.8297,-2.77385 2.9288,2.42958 8.3917,9.8423 12.2707,9.46579 2.2565,-3.9833 1.2694,-8.73656 2.2717,-13.02949 1.1097,-11.74431 1.3956,-23.54884 2.4489,-35.28384 1.3435,-2.13616 1.0323,4.41175 1.1254,5.66208 0.5334,13.56143 1.2874,27.13228 2.7681,40.64306 -0.2121,4.36293 4.2716,3.45542 5.9997,0.35749 3.5817,-2.74799 7.5042,-8.50183 9.9371,-10.04462 -1.4414,4.34285 -5.691,7.63683 -8.4115,11.4021 -4.2594,1.99771 -3.6324,5.992 1.4423,5.69164 7.228,1.39121 14.8755,1.68719 22.1903,2.66818 -5.1885,1.77106 -10.804,1.74188 -16.2922,3.23049 -4.4191,-0.0241 -11.598,1.75632 -6.8564,6.51413 2.1373,3.43911 5.5507,6.19156 7.5139,9.71685 -4.997,-2.6202 -9.9105,-9.83304 -14.6037,-9.90705 -2.027,11.01885 -2.1379,22.21191 -3.144,33.31631 -0.3985,4.70299 -0.6452,9.43599 -1.2784,14.11204 -0.059,0.23184 -0.765,0.50567 -0.6605,-0.0105 z"
       id="path6" />
    <path
       style="fill:#d86a2e;fill-opacity:1;stroke:#e2b544;stroke-width:0.637575;stroke-dasharray:none;stroke-opacity:1"
       d="m 1282.6846,211.47851 c -0.569,-15.52632 -1.4455,-31.04814 -2.9296,-46.5326 -4.3062,-4.59564 -7.5835,4.66406 -11.4576,6.15393 -1.1577,2.25966 -6.757,5.99563 -2.9214,1.42246 2.6216,-3.93348 11.8202,-9.28635 7.6633,-13.71471 -5.5842,-1.27255 -11.4516,-2.43119 -17.2755,-2.51976 -3.1704,0.14375 -6.2495,-2.54353 -1.116,-2.07462 6.2842,-1.03577 12.8565,-1.03477 18.798,-3.02723 4.7294,-3.74721 -4.5208,-7.63573 -5.6529,-11.43824 -1.6244,-2.01229 -3.7759,-5.98989 -1.8297,-2.77385 2.9288,2.42958 8.3917,9.8423 12.2707,9.46579 2.2565,-3.9833 1.2694,-8.73656 2.2717,-13.02949 1.1097,-11.74431 1.3956,-23.54884 2.4489,-35.283843 1.3435,-2.13616 1.0323,4.411753 1.1254,5.662083 0.5334,13.56143 1.2874,27.13228 2.7681,40.64306 -0.2121,4.36293 4.2716,3.45542 5.9997,0.35749 3.5817,-2.74799 7.5042,-8.50183 9.9371,-10.04462 -1.4414,4.34285 -5.691,7.63683 -8.4115,11.4021 -4.2594,1.99771 -3.6324,5.992 1.4423,5.69164 7.228,1.39121 14.8755,1.68719 22.1903,2.66818 -5.1885,1.77106 -10.804,1.74188 -16.2922,3.23049 -4.4191,-0.0241 -11.598,1.75632 -6.8564,6.51413 2.1373,3.43911 5.5507,6.19156 7.5139,9.71685 -4.997,-2.6202 -9.9105,-9.83304 -14.6037,-9.90705 -2.027,11.01885 -2.1379,22.21191 -3.144,33.31631 -0.3985,4.70299 -0.6452,9.43599 -1.2784,14.11204 -0.059,0.23184 -0.765,0.50567 -0.6605,-0.0105 z"
       id="path6-4" />
    <path
       style="fill:#d86a2e;fill-opacity:1;stroke:#e2b544;stroke-width:0.637575;stroke-dasharray:none;stroke-opacity:1"
       d="m 1687.9913,204.79673 c -0.569,-15.52632 -1.4455,-31.04814 -2.9296,-46.5326 -4.3062,-4.59564 -7.5835,4.66406 -11.4576,6.15393 -1.1577,2.25966 -6.757,5.99563 -2.9214,1.42246 2.6216,-3.93348 11.8202,-9.28635 7.6633,-13.71471 -5.5842,-1.27255 -11.4516,-2.43119 -17.2755,-2.51976 -3.1704,0.14375 -6.2495,-2.54353 -1.116,-2.07462 6.2842,-1.03577 12.8565,-1.03477 18.798,-3.02723 4.7294,-3.74721 -4.5208,-7.63573 -5.6529,-11.43824 -1.6244,-2.01229 -3.7759,-5.98989 -1.8297,-2.77385 2.9288,2.42958 8.3917,9.8423 12.2707,9.46579 2.2565,-3.9833 1.2694,-8.73656 2.2717,-13.02949 1.1097,-11.74431 1.3956,-23.54884 2.4489,-35.283839 1.3435,-2.13616 1.0323,4.41175 1.1254,5.66208 0.5334,13.561429 1.2874,27.132279 2.7681,40.643059 -0.2121,4.36293 4.2716,3.45542 5.9997,0.35749 3.5817,-2.74799 7.5042,-8.50183 9.9371,-10.04462 -1.4414,4.34285 -5.691,7.63683 -8.4115,11.4021 -4.2594,1.99771 -3.6324,5.992 1.4423,5.69164 7.228,1.39121 14.8755,1.68719 22.1903,2.66818 -5.1885,1.77106 -10.804,1.74188 -16.2922,3.23049 -4.4191,-0.0241 -11.598,1.75632 -6.8564,6.51413 2.1373,3.43911 5.5507,6.19156 7.5139,9.71685 -4.997,-2.6202 -9.9105,-9.83304 -14.6037,-9.90705 -2.027,11.01885 -2.1379,22.21191 -3.144,33.31631 -0.3985,4.70299 -0.6452,9.43599 -1.2784,14.11204 -0.059,0.23184 -0.765,0.50567 -0.6605,-0.0105 z"
       id="path6-4-8" />
  </g>
</svg>
