<?xml version="1.0" encoding="UTF-8" standalone="no"?>
<svg
   version="1.1"
   width="10.0278in"
   height="4.81944in"
   viewBox="0 0 722 347"
   id="svg1"
   xmlns="http://www.w3.org/2000/svg"
   xmlns:svg="http://www.w3.org/2000/svg"
   xmlns:rdf="http://www.w3.org/1999/02/22-rdf-syntax-ns#"
   xmlns:cc="http://creativecommons.org/ns#"
   xmlns:dc="http://purl.org/dc/elements/1.1/">
  <title
     id="title1">cta-contact</title>
  <defs
     id="defs1" />
  <path
     style="fill:#2d8c9f;fill-opacity:1;stroke-width:0.840024"
     d="m 391.81406,329.32767 c -70.03441,-2.39703 -141.00052,-5.26302 -209.11112,-23.36687 -16.51442,-5.90017 -36.39862,-11.31539 -45.80126,-27.56304 -9.14287,-21.85484 8.56217,-42.43125 21.97054,-57.73226 43.62076,-46.87026 98.56988,-80.99077 153.92899,-111.68813 41.39427,-21.990552 83.95186,-41.547862 127.95651,-57.486142 31.58342,-11.52235 63.90185,-22.2278 96.91693,-29.01211 19.75844,2.33118 -13.31188,21.18763 -19.30191,27.37796 -44.5137,35.891 -92.11489,71.301822 -122.09283,121.415392 -13.07484,21.60114 -17.57171,52.42134 1.38141,72.08413 25.71517,25.24252 61.75813,34.64869 94.74524,46.07635 51.48049,16.22626 117.65427,21.03636 27.79481,36.25231 -42.67483,3.66684 -85.58839,3.87853 -128.38731,3.64241 z"
     id="path1-8" />
  <path
     style="fill:#c9a227;fill-opacity:1;stroke-width:0.940073"
     d="M 247.13842,213.04661 102.14307,79.885985 737.50771,211.4206 102.54765,349.67435 Z"
     id="path1" />
  <metadata
     id="metadata1">
    <rdf:RDF>
      <cc:Work
         rdf:about="">
        <dc:title>cta-contact</dc:title>
      </cc:Work>
    </rdf:RDF>
  </metadata>
</svg>
