<svg xmlns="http://www.w3.org/2000/svg" width="360" height="360" viewBox="0 0 360 360" role="img" aria-labelledby="title desc">
  <title id="title">Venmo QR code placeholder</title>
  <desc id="desc">A decorative placeholder box marked as not a real payment QR code.</desc>
  <rect width="360" height="360" rx="18" fill="#FFFAF2"/>
  <rect x="16" y="16" width="328" height="328" rx="12" fill="#F4EFE3" stroke="#2D8C9F" stroke-width="5" stroke-dasharray="14 10"/>
  <g fill="#D86A2E">
    <rect x="42" y="42" width="72" height="72" rx="6"/>
    <rect x="246" y="42" width="72" height="72" rx="6"/>
    <rect x="42" y="246" width="72" height="72" rx="6"/>
  </g>
  <g fill="#FFFAF2">
    <rect x="58" y="58" width="40" height="40" rx="3"/>
    <rect x="262" y="58" width="40" height="40" rx="3"/>
    <rect x="58" y="262" width="40" height="40" rx="3"/>
  </g>
  <g fill="#1F6F7E" opacity="0.85">
    <rect x="146" y="48" width="22" height="22" rx="3"/>
    <rect x="188" y="48" width="34" height="22" rx="3"/>
    <rect x="136" y="92" width="74" height="24" rx="3"/>
    <rect x="236" y="136" width="28" height="28" rx="4"/>
    <rect x="282" y="136" width="28" height="66" rx="4"/>
    <rect x="132" y="148" width="40" height="28" rx="4"/>
    <rect x="190" y="144" width="26" height="68" rx="4"/>
    <rect x="136" y="210" width="72" height="24" rx="3"/>
    <rect x="232" y="236" width="36" height="28" rx="4"/>
    <rect x="288" y="244" width="22" height="74" rx="3"/>
    <rect x="142" y="274" width="88" height="24" rx="3"/>
  </g>
  <rect x="28" y="154" width="304" height="52" rx="8" fill="#FFFAF2" stroke="#B04A1D" stroke-width="2"/>
  <text x="180" y="176" fill="#2B2B2B" font-family="Arial, sans-serif" font-size="15" font-weight="700" text-anchor="middle">PLACEHOLDER ONLY</text>
  <text x="180" y="195" fill="#2B2B2B" font-family="Arial, sans-serif" font-size="13" text-anchor="middle">Not a real payment QR code</text>
</svg>
